<?xml version="1.0" encoding="UTF-8" standalone="no"?>
<svg
   xmlns:dc="http://purl.org/dc/elements/1.1/"
   xmlns:cc="http://creativecommons.org/ns#"
   xmlns:rdf="http://www.w3.org/1999/02/22-rdf-syntax-ns#"
   xmlns:svg="http://www.w3.org/2000/svg"
   xmlns="http://www.w3.org/2000/svg"
   xmlns:xlink="http://www.w3.org/1999/xlink"
   xmlns:sodipodi="http://sodipodi.sourceforge.net/DTD/sodipodi-0.dtd"
   xmlns:inkscape="http://www.inkscape.org/namespaces/inkscape"
   inkscape:export-ydpi="96"
   inkscape:export-xdpi="96"
   inkscape:export-filename="C:\Users\John\Desktop\angular-firebase\my-project\src\app\images\drawing.png"
   sodipodi:docname="drawing1.svg"
   inkscape:version="1.0 (4035a4fb49, 2020-05-01)"
   version="1.1"
   id="svg2"
   viewBox="0 0 520.35999 150.09448"
   height="150.09448"
   width="520.35999">
  <defs
     id="defs4">
    <inkscape:path-effect
       hide_knot="false"
       lpeversion="0"
       effect="skeletal"
       id="path-effect4221"
       is_visible="true"
       pattern="m -60.414336,620.51514 h 0.373112"
       copytype="single_stretched"
       prop_scale="1"
       scale_y_rel="false"
       spacing="0"
       normal_offset="0"
       tang_offset="0"
       prop_units="false"
       vertical_pattern="false"
       fuse_tolerance="0" />
    <inkscape:path-effect
       hide_knot="false"
       lpeversion="0"
       fuse_tolerance="0"
       vertical_pattern="false"
       prop_units="false"
       tang_offset="0"
       normal_offset="0"
       spacing="0"
       scale_y_rel="false"
       prop_scale="1"
       copytype="single_stretched"
       pattern="m -60.414336,620.51514 h 0.373112"
       is_visible="true"
       id="path-effect4205"
       effect="skeletal" />
    <linearGradient
       id="linearGradient4189"
       inkscape:collect="always">
      <stop
         id="stop4191"
         offset="0"
         style="stop-color:#22b1ee;stop-opacity:1;" />
      <stop
         id="stop4193"
         offset="1"
         style="stop-color:#22b1ee;stop-opacity:0;" />
    </linearGradient>
    <linearGradient
       id="linearGradient4169"
       inkscape:collect="always">
      <stop
         id="stop4171"
         offset="0"
         style="stop-color:#2d388a;stop-opacity:1;" />
      <stop
         id="stop4173"
         offset="1"
         style="stop-color:#2d388a;stop-opacity:0;" />
    </linearGradient>
    <linearGradient
       gradientTransform="matrix(0.37311121,0,0,0.33660414,24.387991,447.54209)"
       gradientUnits="userSpaceOnUse"
       y2="840.93359"
       x2="285.71426"
       y1="840.93365"
       x1="170"
       id="linearGradient4175"
       xlink:href="#linearGradient4169"
       inkscape:collect="always" />
    <linearGradient
       gradientTransform="matrix(0.37310788,0,0,0.33660784,29.497173,-446.346)"
       gradientUnits="userSpaceOnUse"
       y2="-842.33246"
       x2="-290.34064"
       y1="-846.61908"
       x1="-424.57739"
       id="linearGradient4195"
       xlink:href="#linearGradient4189"
       inkscape:collect="always" />
    <linearGradient
       gradientTransform="matrix(0.37311121,0,0,0.33660414,29.185135,448.02296)"
       y2="846.64789"
       x2="359.99997"
       y1="839.50507"
       x1="160"
       gradientUnits="userSpaceOnUse"
       id="linearGradient4201"
       xlink:href="#linearGradient4169"
       inkscape:collect="always" />
    <inkscape:path-effect
       hide_knot="false"
       lpeversion="0"
       effect="skeletal"
       id="path-effect4221-2"
       is_visible="true"
       pattern="m -96.445144,614.05474 h 0.373112"
       copytype="single_stretched"
       prop_scale="1"
       scale_y_rel="false"
       spacing="0"
       normal_offset="0"
       tang_offset="0"
       prop_units="false"
       vertical_pattern="false"
       fuse_tolerance="0" />
    <inkscape:path-effect
       hide_knot="false"
       lpeversion="0"
       effect="skeletal"
       id="path-effect4221-6"
       is_visible="true"
       pattern="m -22.951699,638.39959 h 0.373112"
       copytype="single_stretched"
       prop_scale="1"
       scale_y_rel="false"
       spacing="0"
       normal_offset="0"
       tang_offset="0"
       prop_units="false"
       vertical_pattern="false"
       fuse_tolerance="0" />
    <inkscape:path-effect
       hide_knot="false"
       lpeversion="0"
       effect="skeletal"
       id="path-effect4221-6-4"
       is_visible="true"
       pattern="m 10.502521,927.63323 h 1"
       copytype="single_stretched"
       prop_scale="1"
       scale_y_rel="false"
       spacing="0"
       normal_offset="0"
       tang_offset="0"
       prop_units="false"
       vertical_pattern="false"
       fuse_tolerance="0" />
    <inkscape:path-effect
       hide_knot="false"
       lpeversion="0"
       effect="skeletal"
       id="path-effect4221-2-5"
       is_visible="true"
       pattern="m -186.47212,855.30835 h 1"
       copytype="single_stretched"
       prop_scale="1"
       scale_y_rel="false"
       spacing="0"
       normal_offset="0"
       tang_offset="0"
       prop_units="false"
       vertical_pattern="false"
       fuse_tolerance="0" />
    <inkscape:path-effect
       hide_knot="false"
       lpeversion="0"
       effect="skeletal"
       id="path-effect4221-8"
       is_visible="true"
       pattern="m -89.903569,874.50125 h 1"
       copytype="single_stretched"
       prop_scale="1"
       scale_y_rel="false"
       spacing="0"
       normal_offset="0"
       tang_offset="0"
       prop_units="false"
       vertical_pattern="false"
       fuse_tolerance="0" />
    <inkscape:path-effect
       hide_knot="false"
       lpeversion="0"
       fuse_tolerance="0"
       vertical_pattern="false"
       prop_units="false"
       tang_offset="0"
       normal_offset="0"
       spacing="0"
       scale_y_rel="false"
       prop_scale="1"
       copytype="single_stretched"
       pattern="m -89.903569,874.50125 h 1"
       is_visible="true"
       id="path-effect4205-9"
       effect="skeletal" />
  </defs>
  <sodipodi:namedview
     inkscape:document-rotation="0"
     inkscape:window-maximized="1"
     inkscape:window-y="-11"
     inkscape:window-x="-11"
     inkscape:window-height="986"
     inkscape:window-width="1920"
     units="px"
     showgrid="false"
     inkscape:current-layer="layer1"
     inkscape:document-units="px"
     inkscape:cy="-74.625842"
     inkscape:cx="867.57706"
     inkscape:zoom="0.7"
     inkscape:pageshadow="2"
     inkscape:pageopacity="0.0"
     borderopacity="1.0"
     bordercolor="#666666"
     pagecolor="#ffffff"
     id="base">
    <inkscape:grid
       id="grid4207"
       type="xygrid" />
  </sodipodi:namedview>
  <metadata
     id="metadata7">
    <rdf:RDF>
      <cc:Work
         rdf:about="">
        <dc:format>image/svg+xml</dc:format>
        <dc:type
           rdf:resource="http://purl.org/dc/dcmitype/StillImage" />
        <dc:title></dc:title>
      </cc:Work>
    </rdf:RDF>
  </metadata>
  <g
     transform="translate(0,-652.26769)"
     id="layer1"
     inkscape:groupmode="layer"
     inkscape:label="Layer 1">
    <text
       inkscape:export-ydpi="96"
       inkscape:export-xdpi="96"
       transform="scale(0.85545936,1.1689626)"
       id="text4136"
       y="649.18799"
       x="190.53253"
       style="font-style:normal;font-weight:normal;font-size:4.25266px;line-height:0%;font-family:sans-serif;letter-spacing:0px;word-spacing:0px;fill:#000000;fill-opacity:1;stroke:none;stroke-width:0.354387px;stroke-linecap:butt;stroke-linejoin:miter;stroke-opacity:1"
       xml:space="preserve"><tspan
         dx="0"
         dy="0"
         style="font-style:normal;font-variant:normal;font-weight:bold;font-stretch:normal;font-size:61.4462px;line-height:1.25;font-family:sans-serif;-inkscape-font-specification:'sans-serif Bold';letter-spacing:1.81756px;word-spacing:0px;stroke-width:0.354387px"
         y="649.18799"
         x="190.53253"
         id="tspan4138"
         sodipodi:role="line">RyderHub</tspan></text>
    <path
       sodipodi:arc-type="arc"
       inkscape:export-ydpi="96"
       inkscape:export-xdpi="96"
       d="M 52.034754,710.73349 A 52.235569,46.643719 0 0 1 121.22075,687.68543 52.235569,46.643719 0 0 1 147.08504,749.4473 52.235569,46.643719 0 0 1 77.938771,772.59023 52.235569,46.643719 0 0 1 51.968277,710.8639"
       sodipodi:open="true"
       sodipodi:end="3.5672261"
       sodipodi:start="3.5702979"
       sodipodi:ry="46.643719"
       sodipodi:rx="52.235569"
       sodipodi:cy="730.12299"
       sodipodi:cx="99.543251"
       sodipodi:type="arc"
       id="path4150"
       style="opacity:1;fill:url(#linearGradient4175);fill-opacity:1;fill-rule:evenodd;stroke:none;stroke-width:0.547884;stroke-miterlimit:4;stroke-dasharray:none;stroke-opacity:1" />
    <path
       sodipodi:arc-type="arc"
       inkscape:export-ydpi="96"
       inkscape:export-xdpi="96"
       transform="matrix(-0.99996095,0.00883753,-0.01085825,-0.99994105,0,0)"
       style="opacity:1;fill:url(#linearGradient4195);fill-opacity:1;fill-rule:evenodd;stroke:none;stroke-width:0.547884;stroke-miterlimit:4;stroke-dasharray:none;stroke-opacity:1"
       id="path4177"
       sodipodi:type="arc"
       sodipodi:cx="-95.335388"
       sodipodi:cy="-731.48944"
       sodipodi:rx="52.2351"
       sodipodi:ry="46.644226"
       sodipodi:start="3.5702979"
       sodipodi:end="3.5672261"
       sodipodi:open="true"
       d="m -142.84346,-750.87915 a 52.2351,46.644226 0 0 1 69.185377,-23.04831 52.2351,46.644226 0 0 1 25.864059,61.76254 52.2351,46.644226 0 0 1 -69.145646,23.14318 52.2351,46.644226 0 0 1 -25.97026,-61.727" />
    <path
       sodipodi:arc-type="arc"
       inkscape:export-ydpi="96"
       inkscape:export-xdpi="96"
       style="opacity:1;fill:url(#linearGradient4201);fill-opacity:1;fill-rule:evenodd;stroke:none;stroke-width:0.547884;stroke-miterlimit:4;stroke-dasharray:none;stroke-opacity:1"
       id="path4197"
       sodipodi:type="arc"
       sodipodi:cx="104.34039"
       sodipodi:cy="730.60388"
       sodipodi:rx="52.235569"
       sodipodi:ry="46.643719"
       sodipodi:start="3.5702979"
       sodipodi:end="3.5672261"
       sodipodi:open="true"
       d="M 56.831896,711.21439 A 52.235569,46.643719 0 0 1 126.01789,688.16632 52.235569,46.643719 0 0 1 151.88218,749.9282 52.235569,46.643719 0 0 1 82.735913,773.07112 52.235569,46.643719 0 0 1 56.765419,711.34479" />
    <path
       inkscape:export-ydpi="96"
       inkscape:export-xdpi="96"
       sodipodi:nodetypes="ccsccsc"
       inkscape:connector-curvature="0"
       inkscape:original-d="m 66.832543,757.217 h 67.195397 c 0,0 4.16363,-1.04307 4.45841,-5.12805 0.29648,-4.10858 -4.45153,-5.45943 -4.45153,-5.45943 l -67.072476,-0.3283 c 0,0 -4.503284,1.02543 -4.229947,5.38881 0.273346,4.36339 4.100146,5.52697 4.100146,5.52697 z"
       inkscape:path-effect="#path-effect4205"
       id="path4203"
       d="m 66.832543,757.217 h 67.195397 c 0.0174,-0.004 0.0353,-0.009 0.0523,-0.0143 0.0458,-0.013 0.0913,-0.027 0.13661,-0.0416 v 0 c 0.16241,-0.0521 0.32239,-0.11175 0.48012,-0.17668 0,0 0,0 1e-5,0 0.51618,-0.2125 1.00901,-0.48274 1.46218,-0.80868 0,0 0,-10e-6 0,-10e-6 1.31673,-0.94706 2.21041,-2.4691 2.32715,-4.08685 l 0,0 c 0.11936,-1.65402 -0.7721,-3.27234 -2.1029,-4.26177 0,0 0,0 -1e-5,0 -0.49382,-0.36715 -1.03368,-0.67095 -1.59791,-0.91654 v 0 c 0,0 0,0 0,0 0,-10e-6 0,-10e-6 0,-10e-6 -0.17675,-0.0769 -0.35602,-0.14819 -0.53798,-0.2118 -1e-5,0 -1e-5,0 -1e-5,0 0,0 0,0 -10e-6,-1e-5 -0.0511,-0.0179 -0.10242,-0.0351 -0.15405,-0.0514 -0.0191,-0.006 -0.0392,-0.0123 -0.0585,-0.0178 l -67.072636,-0.32835 -2.229324,1.06686 -7e-6,1e-5 c -1.336521,0.9867 -2.104481,2.6639 -2.000616,4.32194 0.104701,1.67132 0.863193,3.30586 2.140141,4.38923 2e-6,0 4e-6,10e-6 7e-6,10e-6 l 1.959798,1.13767 c 1.33e-4,4e-5 2e-4,6e-5 2e-4,6e-5 z"
       style="fill:#ffffff;fill-opacity:1;fill-rule:evenodd;stroke:none;stroke-width:0.354387px;stroke-linecap:butt;stroke-linejoin:miter;stroke-opacity:1" />
    <path
       inkscape:export-ydpi="96"
       inkscape:export-xdpi="96"
       style="fill:#ffffff;fill-opacity:1;fill-rule:evenodd;stroke:none;stroke-width:0.354387px;stroke-linecap:butt;stroke-linejoin:miter;stroke-opacity:1"
       d="m 95.47717,701.055 0.009,52.1755 c 0.0043,0.014 0.0091,0.0282 0.01383,0.0418 0.01239,0.0359 0.02566,0.0715 0.03944,0.1069 0,0 0,0 10e-7,0 0.04952,0.12715 0.10582,0.25161 0.166764,0.3737 v 0 c 0.203971,0.40862 0.460805,0.79074 0.760918,1.13498 1e-6,0 1e-6,10e-6 2e-6,10e-6 0.954961,1.09537 2.387627,1.71758 3.838262,1.80394 h 0 l 0,0 v 0 c 1.49067,0.0888 3.0029,-0.52113 4.0022,-1.6308 v 0 c 0,0 0,0 0,0 0.33777,-0.37507 0.62635,-0.79395 0.86176,-1.24044 l 0,0 0,0 c 0.0721,-0.13679 0.13932,-0.27622 0.19961,-0.41861 0,0 1e-5,0 1e-5,0 0,0 0,0 0,0 0.0169,-0.0399 0.0332,-0.08 0.0487,-0.12042 0.006,-0.0152 0.0118,-0.0312 0.0172,-0.0465 l 0.30034,-52.08028 -1.00504,-1.73344 0,-10e-6 c -1.00068,-1.11817 -2.56064,-1.62822 -4.05918,-1.55051 0,0 0,0 -1e-5,0 -1.512278,0.0784 -3.036143,0.60364 -4.121536,1.65961 -2e-6,0 -3e-6,0 -5e-6,0 l -1.071377,1.52429 z"
       id="path4219"
       inkscape:path-effect="#path-effect4221"
       inkscape:original-d="m 95.47717,701.055 0.009,52.1755 c 0,0 0.98066,3.23285 4.81922,3.46137 3.86072,0.22987 5.1295,-3.45698 5.1295,-3.45698 l 0.30027,-52.08008 c 0,0 -0.96413,-3.49659 -5.06422,-3.28396 -4.10011,0.21264 -5.19302,3.18415 -5.19302,3.18415 z"
       inkscape:connector-curvature="0"
       sodipodi:nodetypes="ccsccsc" />
    <path
       inkscape:export-ydpi="96"
       inkscape:export-xdpi="96"
       style="fill:#ffffff;fill-opacity:1;fill-rule:evenodd;stroke:none;stroke-width:0.354387px;stroke-linecap:butt;stroke-linejoin:miter;stroke-opacity:1"
       d="m 76.999756,720.49034 0.0083,30.28818 c 0.0163,0.0307 0.03628,0.0612 0.05551,0.0897 0.05146,0.0763 0.108496,0.14876 0.168659,0.21841 0.220304,0.25504 0.482421,0.47207 0.763259,0.65838 l 10e-7,0 2e-6,0 v 0 c 1.116795,0.74087 2.492387,0.9966 3.83178,1.04288 v 0 l 2e-6,0 v 0 c 1.38894,0.048 2.827154,-0.19157 3.996327,-0.94289 v 0 c 10e-7,0 3e-6,0 4e-6,0 0.31609,-0.20313 0.610549,-0.44177 0.863632,-0.71947 10e-7,0 2e-6,0 3e-6,-10e-6 0.07112,-0.078 0.138997,-0.15913 0.201368,-0.24432 v 0 c 0,0 10e-7,0 10e-7,0 0.01709,-0.0234 0.03377,-0.047 0.04972,-0.0711 0.0062,-0.009 0.01251,-0.019 0.01828,-0.0287 l 0.300449,-30.23306 c -0.01578,-0.0327 -0.03581,-0.0654 -0.05497,-0.0958 -0.05123,-0.0812 -0.108889,-0.15826 -0.170233,-0.23213 -10e-7,0 -2e-6,0 -3e-6,0 -0.222569,-0.26802 -0.493666,-0.49346 -0.786295,-0.68251 -1.179426,-0.76195 -2.649198,-0.93814 -4.052705,-0.89589 l -4e-6,0 -5.1928,1.84805 z"
       id="path4219-5"
       inkscape:path-effect="#path-effect4221-2"
       inkscape:original-d="m 76.999756,720.49034 0.0083,30.28818 c 0,0 0.980645,1.87669 4.819209,2.00933 3.860746,0.13345 5.129507,-2.00679 5.129507,-2.00679 l 0.300276,-30.23277 c 0,0 -0.964119,-2.02979 -5.064212,-1.90635 -4.100116,0.12343 -5.193021,1.8484 -5.193021,1.8484 z"
       inkscape:connector-curvature="0"
       sodipodi:nodetypes="ccsccsc" />
    <path
       inkscape:export-ydpi="96"
       inkscape:export-xdpi="96"
       style="fill:#ffffff;fill-opacity:1;fill-rule:evenodd;stroke:none;stroke-width:0.354387px;stroke-linecap:butt;stroke-linejoin:miter;stroke-opacity:1"
       d="m 114.68886,711.15956 0.009,40.50227 0.98372,1.28906 c 1.0371,0.92199 2.44929,1.33383 3.83549,1.39789 1e-5,0 1e-5,0 1e-5,0 1.43173,0.0662 2.91344,-0.32868 3.99966,-1.26375 0,0 0,0 0,-10e-6 0.32745,-0.28187 0.61957,-0.60531 0.86257,-0.96256 v 0 l 0,0 v 0 c 0.0717,-0.10544 0.13923,-0.21381 0.20037,-0.32572 1e-5,0 1e-5,-10e-6 1e-5,-10e-6 0.017,-0.0311 0.0335,-0.0624 0.0491,-0.0942 v 0 c 0.006,-0.0121 0.0121,-0.0248 0.0176,-0.0371 l 0.30039,-40.42842 -1.00776,-1.34798 0,-10e-6 0,0 c -1.09213,-0.94569 -2.61296,-1.25936 -4.05646,-1.20124 0,0 0,0 -10e-6,0 -1.45909,0.0587 -2.95256,0.40684 -4.11852,1.28602 0,0 0,0 0,0 -0.30948,0.23336 -0.59354,0.50239 -0.82971,0.80973 v 0 l 0,0 c -0.0661,0.086 -0.12839,0.17487 -0.18445,0.26766 0,0 0,0 0,0 -0.0153,0.0254 -0.0302,0.0511 -0.0443,0.0772 -0.005,0.0101 -0.011,0.0205 -0.0159,0.0309 z"
       id="path4219-6"
       inkscape:path-effect="#path-effect4221-6"
       inkscape:original-d="m 114.68886,711.15956 0.009,40.50227 c 0,0 0.98065,2.50956 4.81922,2.68695 3.86074,0.17843 5.1295,-2.68356 5.1295,-2.68356 l 0.30028,-40.42818 c 0,0 -0.96412,-2.7143 -5.06422,-2.54923 -4.10011,0.16505 -5.19301,2.47175 -5.19301,2.47175 z"
       inkscape:connector-curvature="0"
       sodipodi:nodetypes="ccsccsc" />
    <path
       sodipodi:nodetypes="ccsccsc"
       inkscape:connector-curvature="0"
       inkscape:original-d="m 230.1216,1280.6218 h 199.80131 c 0,0 12.38026,-3.1698 13.25677,-15.5838 0.88158,-12.4856 -13.23635,-16.5908 -13.23635,-16.5908 l -199.43577,-0.9977 c 0,0 -13.39024,3.1163 -12.57748,16.3762 0.81277,13.2601 12.19152,16.7961 12.19152,16.7961 z"
       inkscape:path-effect="#path-effect4205-9"
       id="path4203-9"
       d="m 230.1216,1280.6218 h 199.80131 c 0.0128,-0 0.0258,-0.01 0.0384,-0.01 0.0355,-0.01 0.0709,-0.02 0.1062,-0.03 0.13354,-0.039 0.26625,-0.08 0.39839,-0.1233 0,0 1e-5,0 1e-5,0 l 0,0 c 0.48021,-0.1569 0.95294,-0.3363 1.41888,-0.5315 0,0 0,0 10e-6,0 1.53855,-0.6448 3.00467,-1.4649 4.35031,-2.4508 h 0 l 1e-5,0 h 0 c 1.77614,-1.3014 3.33785,-2.9089 4.5084,-4.7739 v 0 c 0,0 0,0 10e-6,0 0,0 0,0 0,0 1.4397,-2.2938 2.24537,-4.9626 2.43611,-7.6641 0.19134,-2.7099 -0.36552,-5.4817 -1.69218,-7.8524 -1.12616,-2.0124 -2.74567,-3.7236 -4.58376,-5.1163 l -6.96036,-3.6221 -199.43582,-0.9977 -6e-5,0 -6.60528,3.2245 c -1e-5,0 -2e-5,0 -2e-5,0 -1.78219,1.3401 -3.31247,3.0351 -4.35392,5.0068 -1.30947,2.479 -1.78973,5.3465 -1.6182,8.1449 0,0 0,0 0,0 0.31051,5.0658 2.54797,10.0415 6.38817,13.3599 l 0,0 2e-5,0 c 1.21582,1.0506 2.5619,1.951 3.99908,2.6697 0,0 1e-5,0 2e-5,0 h 0 c 0.42636,0.2132 0.86077,0.4107 1.30445,0.585 10e-6,0 2e-5,0 3e-5,0 0,0 1e-5,0 2e-5,0 0.12134,0.048 0.24336,0.094 0.36643,0.1367 0.0325,0.011 0.0651,0.023 0.0978,0.033 0.0117,0 0.0237,0.01 0.0355,0.011 5e-5,0 7e-5,0 7e-5,0 z"
       style="fill:#e10808;fill-opacity:1;fill-rule:evenodd;stroke:none;stroke-width:1px;stroke-linecap:butt;stroke-linejoin:miter;stroke-opacity:1" />
    <path
       style="fill:#e10808;fill-opacity:1;fill-rule:evenodd;stroke:none;stroke-width:1px;stroke-linecap:butt;stroke-linejoin:miter;stroke-opacity:1"
       d="m 315.29459,1109.9496 0.0245,158.5575 2.89521,5.0114 1e-5,0 c 2.81795,3.3174 7.0898,5.2431 11.43441,5.5075 2.47,0.1503 4.98951,-0.2666 7.21779,-1.3428 1.79652,-0.8677 3.38687,-2.1373 4.7031,-3.6366 0,0 10e-6,0 10e-6,0 l 3.33131,-5.5261 0.89287,-158.2675 -2e-5,-10e-5 -2.96747,-5.2438 h 0 l -10e-6,0 c -2.95044,-3.3844 -7.60703,-4.9735 -12.09062,-4.7358 -10e-6,0 -10e-6,0 -2e-5,0 -4.52511,0.2398 -9.0738,1.8661 -12.28012,5.0682 0,0 -10e-6,0 -10e-6,10e-5 -0.94897,0.9477 -1.78249,2.0131 -2.45493,3.1735 -1e-5,0 -1e-5,0 -1e-5,0 -0.19523,0.3369 -0.37709,0.6817 -0.53843,1.0361 v 0 c -0.0439,0.096 -0.0862,0.1934 -0.12599,0.2916 l 0,0 c -0.0105,0.026 -0.0208,0.052 -0.0308,0.078 -0.004,0.01 -0.007,0.019 -0.0107,0.029 z"
       id="path4219-9"
       inkscape:path-effect="#path-effect4221-8"
       inkscape:original-d="m 315.29459,1109.9496 0.0245,158.5575 c 0,0 2.91591,9.8244 14.32963,10.5189 11.47963,0.6985 15.25223,-10.5056 15.25223,-10.5056 l 0.89285,-158.2674 c 0,0 -2.86675,-10.6259 -15.05812,-9.9797 -12.19143,0.6461 -15.44111,9.6763 -15.44111,9.6763 z"
       inkscape:connector-curvature="0"
       sodipodi:nodetypes="ccsccsc" />
    <path
       style="fill:#e10808;fill-opacity:1;fill-rule:evenodd;stroke:none;stroke-width:1px;stroke-linecap:butt;stroke-linejoin:miter;stroke-opacity:1"
       d="m 260.35317,1169.0122 0.0245,92.0435 c 0.012,0.023 0.0254,0.047 0.0384,0.069 0.0364,0.063 0.075,0.1246 0.1148,0.1854 v 0 c 0.14955,0.2287 0.31581,0.4462 0.49137,0.6556 0,0 0,0 0,0 0.64825,0.7733 1.42354,1.4345 2.25695,2.0034 0,0 0,0 0,0 3.30944,2.2588 7.42374,3.0513 11.42807,3.1927 l 0,0 10e-6,0 v 0 c 4.14997,0.1466 8.45026,-0.5979 11.91516,-2.8866 0,0 0,0 0,0 0.9391,-0.6203 1.81116,-1.3475 2.55758,-2.1898 1e-5,0 1e-5,0 1e-5,0 0.20833,-0.2351 0.40697,-0.4791 0.58909,-0.735 0,0 0,0 0,0 0,0 10e-6,0 10e-6,0 0.0489,-0.069 0.0966,-0.1383 0.14216,-0.2092 0.012,-0.019 0.0239,-0.038 0.0355,-0.056 0.004,-0.01 0.009,-0.014 0.0127,-0.021 l 0.89291,-91.8753 c -0.003,-0.01 -0.007,-0.014 -0.01,-0.02 -0.009,-0.018 -0.0184,-0.036 -0.0279,-0.054 -0.036,-0.068 -0.0746,-0.1336 -0.11443,-0.1988 -10e-6,0 -10e-6,0 -10e-6,0 0,0 0,0 -1e-5,0 -0.14895,-0.2437 -0.31713,-0.4752 -0.49628,-0.6976 0,0 -10e-6,0 -10e-6,0 -0.6546,-0.8125 -1.45637,-1.4999 -2.3252,-2.0777 0,0 -1e-5,0 -1e-5,0 -3.49346,-2.3231 -7.8909,-2.874 -12.08429,-2.7449 l -1e-5,0 c -4.24618,0.1306 -8.59701,0.8094 -12.27335,2.9382 h 0 c 0,0 -10e-6,0 -10e-6,0 -0.88832,0.5144 -1.73165,1.1159 -2.45739,1.8418 0,0 -10e-6,0 -10e-6,0 -0.19091,0.191 -0.37364,0.3905 -0.54045,0.6029 -0.0438,0.056 -0.0865,0.1124 -0.12711,0.1705 -0.0145,0.021 -0.0293,0.042 -0.0427,0.064 -5e-5,10e-5 -7e-5,10e-5 -7e-5,10e-5 z"
       id="path4219-5-8"
       inkscape:path-effect="#path-effect4221-2-5"
       inkscape:original-d="m 260.35317,1169.0122 0.0245,92.0435 c 0,0 2.91589,5.7031 14.32962,6.1062 11.47968,0.4056 15.25227,-6.0984 15.25227,-6.0984 l 0.89285,-91.8752 c 0,0 -2.86675,-6.1684 -15.05812,-5.7932 -12.19143,0.3751 -15.44112,5.6171 -15.44112,5.6171 z"
       inkscape:connector-curvature="0"
       sodipodi:nodetypes="ccsccsc" />
    <path
       style="fill:#e10808;fill-opacity:1;fill-rule:evenodd;stroke:none;stroke-width:1px;stroke-linecap:butt;stroke-linejoin:miter;stroke-opacity:1"
       d="m 372.41935,1140.6567 0.0245,123.0833 c 0.003,0.01 0.007,0.017 0.01,0.025 0.009,0.022 0.0184,0.044 0.0279,0.066 0.036,0.083 0.0744,0.1653 0.11421,0.2468 0.14688,0.3007 0.31264,0.592 0.49029,0.8756 0,0 0,0 0,0 0.6216,0.9924 1.39099,1.8896 2.25561,2.6793 0,0 0,0 0,0 3.06554,2.7999 7.28458,4.0769 11.43172,4.2728 l 1e-5,0 c 4.28061,0.2022 8.70745,-1.0251 11.91844,-3.8631 l 0,0 3.33379,-4.2919 0.89289,-122.8584 -2.97016,-4.073 c -3.2262,-2.8711 -7.77288,-3.8514 -12.08797,-3.6739 -1e-5,0 -1e-5,0 -2e-5,0 -4.36228,0.1795 -8.82598,1.2579 -12.27715,3.9321 l -3.16388,3.5793 z"
       id="path4219-6-7"
       inkscape:path-effect="#path-effect4221-6-4"
       inkscape:original-d="m 372.41935,1140.6567 0.0245,123.0833 c 0,0 2.9159,7.6264 14.32963,8.1655 11.47967,0.5422 15.25227,-8.1551 15.25227,-8.1551 l 0.89285,-122.8583 c 0,0 -2.86675,-8.2485 -15.05813,-7.7469 -12.19142,0.5016 -15.4411,7.5115 -15.4411,7.5115 z"
       inkscape:connector-curvature="0"
       sodipodi:nodetypes="ccsccsc" />
    <path
       sodipodi:arc-type="arc"
       inkscape:export-ydpi="96"
       inkscape:export-xdpi="96"
       d="m 50.18681,709.99343 a 56.623775,49.060368 0 0 1 74.99817,-24.2422 56.623775,49.060368 0 0 1 28.0371,64.9618 56.623775,49.060368 0 0 1 -74.955108,24.34199 56.623775,49.060368 0 0 1 -28.152224,-64.92443"
       sodipodi:open="true"
       sodipodi:end="3.5672261"
       sodipodi:start="3.5702979"
       sodipodi:ry="49.060368"
       sodipodi:rx="56.623775"
       sodipodi:cy="730.38751"
       sodipodi:cx="101.6864"
       sodipodi:type="arc"
       id="path4285"
       style="opacity:1;fill:none;fill-opacity:1;fill-rule:evenodd;stroke:#000000;stroke-width:0.36247;stroke-miterlimit:4;stroke-dasharray:none;stroke-opacity:1" />
  </g>
</svg>
