<?xml version="1.0" encoding="UTF-8" standalone="no"?>
<svg
   xmlns:dc="http://purl.org/dc/elements/1.1/"
   xmlns:cc="http://creativecommons.org/ns#"
   xmlns:rdf="http://www.w3.org/1999/02/22-rdf-syntax-ns#"
   xmlns:svg="http://www.w3.org/2000/svg"
   xmlns="http://www.w3.org/2000/svg"
   xmlns:xlink="http://www.w3.org/1999/xlink"
   xmlns:sodipodi="http://sodipodi.sourceforge.net/DTD/sodipodi-0.dtd"
   xmlns:inkscape="http://www.inkscape.org/namespaces/inkscape"
   inkscape:version="1.0 (4035a4fb49, 2020-05-01)"
   sodipodi:docname="sygnet.svg"
   xml:space="preserve"
   enable-background="new 0 0 173.2 200"
   viewBox="0 0 173.2 200"
   height="200px"
   width="173.2px"
   y="0px"
   x="0px"
   id="Warstwa_1"
   version="1.1"><metadata
   id="metadata23"><rdf:RDF><cc:Work
       rdf:about=""><dc:format>image/svg+xml</dc:format><dc:type
         rdf:resource="http://purl.org/dc/dcmitype/StillImage" /><dc:title></dc:title></cc:Work></rdf:RDF></metadata><defs
   id="defs21"><linearGradient
     gradientTransform="matrix(0.56258148,0,0,0.56863041,-30.781176,-379.05812)"
     gradientUnits="userSpaceOnUse"
     y2="840.93359"
     x2="285.71426"
     y1="840.93365"
     x1="170"
     id="linearGradient4175"
     xlink:href="#linearGradient4169"
     inkscape:collect="always" /><linearGradient
     id="linearGradient4169"
     inkscape:collect="always"><stop
       id="stop4171"
       offset="0"
       style="stop-color:#2d388a;stop-opacity:1;" /><stop
       id="stop4173"
       offset="1"
       style="stop-color:#2d388a;stop-opacity:0;" /></linearGradient><linearGradient
     gradientTransform="matrix(0.56258205,0,0,0.56862982,101.02608,381.70097)"
     gradientUnits="userSpaceOnUse"
     y2="-842.33246"
     x2="-290.34064"
     y1="-846.61908"
     x1="-424.57739"
     id="linearGradient4195"
     xlink:href="#linearGradient4189"
     inkscape:collect="always" /><linearGradient
     id="linearGradient4189"
     inkscape:collect="always"><stop
       id="stop4191"
       offset="0"
       style="stop-color:#22b1ee;stop-opacity:1;" /><stop
       id="stop4193"
       offset="1"
       style="stop-color:#22b1ee;stop-opacity:0;" /></linearGradient><linearGradient
     gradientTransform="matrix(0.56258148,0,0,0.56863041,-23.547988,-378.2458)"
     y2="846.64789"
     x2="359.99997"
     y1="839.50507"
     x1="160"
     gradientUnits="userSpaceOnUse"
     id="linearGradient4201"
     xlink:href="#linearGradient4169"
     inkscape:collect="always" /><inkscape:path-effect
     hide_knot="false"
     lpeversion="0"
     fuse_tolerance="0"
     vertical_pattern="false"
     prop_units="false"
     tang_offset="0"
     normal_offset="0"
     spacing="0"
     scale_y_rel="false"
     prop_scale="1"
     copytype="single_stretched"
     pattern="m -158.64712,-86.852141 h 0.56258"
     is_visible="true"
     id="path-effect4205"
     effect="skeletal" /><inkscape:path-effect
     hide_knot="false"
     lpeversion="0"
     effect="skeletal"
     id="path-effect4221"
     is_visible="true"
     pattern="m -158.64712,-86.852141 h 0.56258"
     copytype="single_stretched"
     prop_scale="1"
     scale_y_rel="false"
     spacing="0"
     normal_offset="0"
     tang_offset="0"
     prop_units="false"
     vertical_pattern="false"
     fuse_tolerance="0" /><inkscape:path-effect
     hide_knot="false"
     lpeversion="0"
     effect="skeletal"
     id="path-effect4221-2"
     is_visible="true"
     pattern="m -212.9748,-97.765812 h 0.56258"
     copytype="single_stretched"
     prop_scale="1"
     scale_y_rel="false"
     spacing="0"
     normal_offset="0"
     tang_offset="0"
     prop_units="false"
     vertical_pattern="false"
     fuse_tolerance="0" /><inkscape:path-effect
     hide_knot="false"
     lpeversion="0"
     effect="skeletal"
     id="path-effect4221-6"
     is_visible="true"
     pattern="m -102.16051,-56.639687 h 0.56257"
     copytype="single_stretched"
     prop_scale="1"
     scale_y_rel="false"
     spacing="0"
     normal_offset="0"
     tang_offset="0"
     prop_units="false"
     vertical_pattern="false"
     fuse_tolerance="0" /></defs><sodipodi:namedview
   inkscape:current-layer="Warstwa_1"
   inkscape:window-maximized="1"
   inkscape:window-y="-11"
   inkscape:window-x="-11"
   inkscape:cy="96.478489"
   inkscape:cx="7.1496229"
   inkscape:zoom="2.8284271"
   showgrid="false"
   id="namedview19"
   inkscape:window-height="986"
   inkscape:window-width="1920"
   inkscape:pageshadow="2"
   inkscape:pageopacity="0"
   guidetolerance="10"
   gridtolerance="10"
   objecttolerance="10"
   borderopacity="1"
   bordercolor="#666666"
   pagecolor="#ffffff" />

<polygon
   transform="matrix(0.56258148,0,0,0.56863041,103.06961,64.212689)"
   id="polygon4"
   points="144.3,66.7 86.6,33.3 28.9,66.7 28.9,133.3 86.6,166.7 144.3,133.3 115.5,116.7 86.6,133.3 57.7,116.7 57.7,83.3 86.6,66.7 115.5,83.3 "
   fill="#ffffff" />
<polygon
   transform="matrix(0.56258148,0,0,0.56863041,103.06961,64.212689)"
   id="polygon6"
   points="86.6,0 0,50 86.6,100 "
   enable-background="new    "
   stroke-miterlimit="10"
   stroke="#ffffff"
   opacity="0.04" />


<polygon
   transform="matrix(0.56258148,0,0,0.56863041,103.06961,64.212689)"
   id="polygon12"
   points="0,150 86.6,100 0,50 "
   fill-opacity="0" />


<path
   sodipodi:arc-type="arc"
   inkscape:export-ydpi="96"
   inkscape:export-xdpi="96"
   d="M 10.904932,65.55504 A 78.761406,78.795921 0 0 1 115.22439,26.619601 78.761406,78.795921 0 0 1 154.22288,130.95485 78.761406,78.795921 0 0 1 49.963314,170.05053 78.761406,78.795921 0 0 1 10.804697,65.775336"
   sodipodi:open="true"
   sodipodi:end="3.5672261"
   sodipodi:start="3.5702979"
   sodipodi:ry="78.795921"
   sodipodi:rx="78.761406"
   sodipodi:cy="98.309998"
   sodipodi:cx="82.538803"
   sodipodi:type="arc"
   id="path4150"
   style="opacity:1;fill:url(#linearGradient4175);fill-opacity:1;fill-rule:evenodd;stroke:none;stroke-width:0.874414;stroke-miterlimit:4;stroke-dasharray:none;stroke-opacity:1" /><path
   sodipodi:arc-type="arc"
   inkscape:export-ydpi="96"
   inkscape:export-xdpi="96"
   transform="matrix(-0.99995098,0.00990117,-0.00969166,-0.99995303,0,0)"
   style="opacity:1;fill:url(#linearGradient4195);fill-opacity:1;fill-rule:evenodd;stroke:none;stroke-width:0.874415;stroke-miterlimit:4;stroke-dasharray:none;stroke-opacity:1"
   id="path4177"
   sodipodi:type="arc"
   sodipodi:cx="-87.199814"
   sodipodi:cy="-99.99041"
   sodipodi:rx="78.76149"
   sodipodi:ry="78.795845"
   sodipodi:start="3.5702979"
   sodipodi:end="3.5672261"
   sodipodi:open="true"
   d="m -158.83376,-132.74534 a 78.76149,78.795845 0 0 1 104.31957,-38.9354 78.76149,78.795845 0 0 1 38.998526,104.335147 78.76149,78.795845 0 0 1 -104.259676,39.095649 78.76149,78.795845 0 0 1 -39.15866,-104.275096" /><path
   sodipodi:arc-type="arc"
   inkscape:export-ydpi="96"
   inkscape:export-xdpi="96"
   style="opacity:1;fill:url(#linearGradient4201);fill-opacity:1;fill-rule:evenodd;stroke:none;stroke-width:0.874414;stroke-miterlimit:4;stroke-dasharray:none;stroke-opacity:1"
   id="path4197"
   sodipodi:type="arc"
   sodipodi:cx="89.772003"
   sodipodi:cy="99.122345"
   sodipodi:rx="78.761406"
   sodipodi:ry="78.795921"
   sodipodi:start="3.5702979"
   sodipodi:end="3.5672261"
   sodipodi:open="true"
   d="M 18.138132,66.367387 A 78.761406,78.795921 0 0 1 122.45759,27.431949 78.761406,78.795921 0 0 1 161.45608,131.76719 78.761406,78.795921 0 0 1 57.196514,170.86288 78.761406,78.795921 0 0 1 18.037897,66.587683" /><path
   inkscape:export-ydpi="96"
   inkscape:export-xdpi="96"
   sodipodi:nodetypes="ccsccsc"
   inkscape:connector-curvature="0"
   inkscape:original-d="M 33.217221,144.08033 H 134.53524 c 0,0 6.27796,-1.76207 6.72244,-8.66289 0.44703,-6.94068 -6.71208,-9.22269 -6.71208,-9.22269 l -101.132663,-0.5546 c 0,0 -6.790104,1.73228 -6.377963,9.1034 0.412153,7.37113 6.182247,9.33678 6.182247,9.33678 z"
   inkscape:path-effect="#path-effect4205"
   id="path4203"
   d="M 33.217221,144.08033 H 134.53524 c 0.007,-0.002 0.0141,-0.004 0.021,-0.006 0.0184,-0.006 0.0368,-0.0112 0.0551,-0.017 0.0684,-0.0218 0.13636,-0.0451 0.20395,-0.0694 0,0 0,0 1e-5,0 0.2449,-0.0879 0.48529,-0.18814 0.72166,-0.29693 l 0,0 c 0.78718,-0.36232 1.53019,-0.82102 2.20538,-1.36419 l 0,0 1e-5,-1e-5 0,0 c 2.07528,-1.66952 3.34421,-4.25124 3.51541,-6.90921 l 0,-1e-5 c 0.17556,-2.72584 -1.07682,-5.45781 -3.17684,-7.2045 l -1e-5,0 -3.53512,-2.01816 -101.132773,-0.55463 c -0.0075,0.002 -0.01505,0.004 -0.02241,0.006 -0.01977,0.005 -0.03948,0.0111 -0.05915,0.0168 -0.07337,0.0215 -0.146214,0.0448 -0.218697,0.0691 -4e-6,0 -8e-6,0 -1.2e-5,0 -4e-6,0 -8e-6,0 -1.2e-5,1e-5 -0.260564,0.0874 -0.516415,0.18869 -0.767775,0.29986 -0.820892,0.36308 -1.595073,0.83391 -2.28723,1.4054 -4e-6,1e-5 -7e-6,1e-5 -10e-6,1e-5 -2.114062,1.74553 -3.175709,4.56889 -3.02266,7.30617 0,0 0,1e-5 1e-6,1e-5 0.15441,2.7615 1.227019,5.5172 3.233398,7.42092 3e-6,0 6e-6,1e-5 9e-6,1e-5 0.60947,0.57828 1.290908,1.08162 2.027286,1.48611 3e-6,1e-5 7e-6,1e-5 1.1e-5,1e-5 0.216204,0.11876 0.437128,0.22914 0.663603,0.3269 h 0 c 0.06209,0.0268 0.124588,0.0526 0.187714,0.0769 0.01687,0.006 0.03378,0.0128 0.05076,0.019 0.0064,0.002 0.01291,0.005 0.01934,0.007 8.7e-5,3e-5 1.3e-4,4e-5 1.3e-4,4e-5 z"
   style="fill:#ffffff;fill-opacity:1;fill-rule:evenodd;stroke:none;stroke-width:0.565597px;stroke-linecap:butt;stroke-linejoin:miter;stroke-opacity:1" /><path
   inkscape:export-ydpi="96"
   inkscape:export-xdpi="96"
   style="fill:#ffffff;fill-opacity:1;fill-rule:evenodd;stroke:none;stroke-width:0.565597px;stroke-linecap:butt;stroke-linejoin:miter;stroke-opacity:1"
   d="m 76.407924,49.205031 0.01243,88.140869 c 0.0017,0.006 0.0035,0.0125 0.0053,0.0187 0.0047,0.0161 0.0095,0.0322 0.01441,0.0482 0.01832,0.0597 0.03796,0.11894 0.0584,0.17793 10e-7,0 2e-6,1e-5 4e-6,1e-5 0.07379,0.213 0.157997,0.42234 0.249505,0.62835 0,10e-6 10e-7,10e-6 2e-6,10e-6 0.303007,0.68218 0.687218,1.32859 1.144905,1.91825 l 0,0 3e-6,1e-5 0,0 c 1.381662,1.78006 3.5456,2.90594 5.793961,3.0559 l 5e-6,0 c 2.303555,0.15366 4.596402,-0.96175 6.040836,-2.76274 l 1.69344,-3.07707 0.452799,-87.979767 c -0.0017,-0.0067 -0.0034,-0.01338 -0.0051,-0.0199 -0.0046,-0.01731 -0.0094,-0.03456 -0.01423,-0.05178 -0.01811,-0.06397 -0.0377,-0.127514 -0.05819,-0.190762 -1e-6,-3e-6 -2e-6,-7e-6 -3e-6,-1e-5 l 0,0 c -0.07341,-0.226605 -0.158451,-0.449373 -0.251961,-0.66845 -1e-6,-3e-6 -3e-6,-7e-6 -4e-6,-1e-5 -0.303545,-0.71115 -0.697685,-1.384621 -1.179477,-1.989394 -2e-6,-3e-6 -4e-6,-6e-6 -7e-6,-9e-6 -1.44302,-1.811359 -3.814889,-2.761657 -6.126876,-2.627321 -4e-6,0 -7e-6,0 -1.1e-5,10e-7 -2.331759,0.135484 -4.645346,1.088694 -6.222088,2.81187 -3e-6,3e-6 -5e-6,6e-6 -8e-6,8e-6 l -1.607936,2.566993 z"
   id="path4219"
   inkscape:path-effect="#path-effect4221"
   inkscape:original-d="m 76.407924,49.205031 0.01243,88.140869 c 0,0 1.478638,5.4613 7.266466,5.84733 5.82125,0.38832 7.734314,-5.83993 7.734314,-5.83993 l 0.452761,-87.979647 c 0,0 -1.453715,-5.906854 -7.635885,-5.547644 -6.182195,0.359204 -7.830093,5.379022 -7.830093,5.379022 z"
   inkscape:connector-curvature="0"
   sodipodi:nodetypes="ccsccsc" /><path
   inkscape:export-ydpi="96"
   inkscape:export-xdpi="96"
   style="fill:#ffffff;fill-opacity:1;fill-rule:evenodd;stroke:none;stroke-width:0.565597px;stroke-linecap:butt;stroke-linejoin:miter;stroke-opacity:1"
   d="m 48.547465,82.037454 0.01243,51.166256 7.266459,3.3944 c 2.118829,0.0821 4.316491,-0.35808 6.035324,-1.59977 l 2e-6,0 1.698907,-1.79014 0.452856,-51.07285 c -0.0063,-0.01473 -0.01344,-0.02949 -0.02038,-0.04368 -0.01858,-0.03797 -0.03848,-0.07529 -0.05913,-0.11217 -10e-7,-2e-6 -2e-6,-4e-6 -3e-6,-6e-6 -0.07576,-0.1353 -0.161672,-0.26477 -0.253707,-0.389568 -10e-7,-2e-6 -3e-6,-4e-6 -4e-6,-6e-6 -0.328074,-0.444865 -0.734628,-0.829174 -1.181744,-1.154172 -2e-6,-2e-6 -4e-6,-3e-6 -6e-6,-4e-6 -1.731635,-1.25868 -3.981367,-1.592995 -6.120905,-1.520828 l -7.829972,3.12232 z"
   id="path4219-5"
   inkscape:path-effect="#path-effect4221-2"
   inkscape:original-d="m 48.547465,82.037454 0.01243,51.166256 c 0,0 1.478627,3.17033 7.266459,3.3944 5.821276,0.22545 7.734329,-3.39009 7.734329,-3.39009 l 0.45276,-51.07267 c 0,0 -1.453711,-3.428958 -7.63588,-3.220433 -6.1822,0.208517 -7.830096,3.122537 -7.830096,3.122537 z"
   inkscape:connector-curvature="0"
   sodipodi:nodetypes="ccsccsc" /><path
   inkscape:export-ydpi="96"
   inkscape:export-xdpi="96"
   style="fill:#ffffff;fill-opacity:1;fill-rule:evenodd;stroke:none;stroke-width:0.565597px;stroke-linecap:butt;stroke-linejoin:miter;stroke-opacity:1"
   d="m 105.37554,66.274827 0.0124,68.421073 1.47504,2.16944 1e-5,0 c 1.51,1.50871 3.65973,2.25931 5.79143,2.36967 l 0,0 c 2.19687,0.11376 4.45718,-0.61308 6.03848,-2.14235 l 1e-5,0 1.69577,-2.39086 0.45282,-68.296086 -1.51149,-2.269377 -1e-5,-7e-6 c -1.58691,-1.544712 -3.91204,-2.136864 -6.12438,-2.037075 h 0 c 0,0 -1e-5,0 -1e-5,0 -2.23494,0.100803 -4.5126,0.733903 -6.21928,2.18039 l 0,0 c -10e-6,2e-6 -10e-6,3e-6 -10e-6,5e-6 -0.47237,0.400349 -0.89841,0.857496 -1.24772,1.36876 -0.0992,0.145139 -0.19222,0.29458 -0.27538,0.449445 l 0,0 c -0.0226,0.04217 -0.0446,0.08473 -0.0652,0.127916 l 0,0 c -0.008,0.01597 -0.0155,0.03259 -0.0224,0.04887 z"
   id="path4219-6"
   inkscape:path-effect="#path-effect4221-6"
   inkscape:original-d="m 105.37554,66.274827 0.0124,68.421073 c 0,0 1.47865,4.23946 7.26648,4.53911 5.82126,0.30144 7.73432,-4.53336 7.73432,-4.53336 l 0.45276,-68.295936 c 0,0 -1.4537,-4.585311 -7.63588,-4.306459 -6.1822,0.278833 -7.83009,4.175572 -7.83009,4.175572 z"
   inkscape:connector-curvature="0"
   sodipodi:nodetypes="ccsccsc" /><path
   sodipodi:arc-type="arc"
   inkscape:export-ydpi="96"
   inkscape:export-xdpi="96"
   d="M 8.1185777,64.304936 A 85.377998,82.87841 0 0 1 121.20171,23.352216 85.377998,82.87841 0 0 1 163.47638,133.09317 85.377998,82.87841 0 0 1 50.458179,174.21444 85.377998,82.87841 0 0 1 8.0099228,64.536645"
   sodipodi:open="true"
   sodipodi:end="3.5672261"
   sodipodi:start="3.5702979"
   sodipodi:ry="82.87841"
   sodipodi:rx="85.377998"
   sodipodi:cy="98.756958"
   sodipodi:cx="85.770271"
   sodipodi:type="arc"
   id="path4285"
   style="opacity:1;fill:none;fill-opacity:1;fill-rule:evenodd;stroke:#000000;stroke-width:0.578499;stroke-miterlimit:4;stroke-dasharray:none;stroke-opacity:1" /></svg>
