<?xml version="1.0" encoding="UTF-8" standalone="no"?>
<svg
   xmlns:dc="http://purl.org/dc/elements/1.1/"
   xmlns:cc="http://creativecommons.org/ns#"
   xmlns:rdf="http://www.w3.org/1999/02/22-rdf-syntax-ns#"
   xmlns:svg="http://www.w3.org/2000/svg"
   xmlns="http://www.w3.org/2000/svg"
   xmlns:xlink="http://www.w3.org/1999/xlink"
   xmlns:sodipodi="http://sodipodi.sourceforge.net/DTD/sodipodi-0.dtd"
   xmlns:inkscape="http://www.inkscape.org/namespaces/inkscape"
   inkscape:export-ydpi="96"
   inkscape:export-xdpi="96"
   inkscape:export-filename="C:\Users\John\Desktop\angular-firebase\my-project\src\app\images\drawing.png"
   sodipodi:docname="drawing1.svg"
   inkscape:version="1.0 (4035a4fb49, 2020-05-01)"
   version="1.1"
   id="svg2"
   viewBox="0 0 1200.3622 400.09448"
   height="400.09448"
   width="1200.3622">
  <defs
     id="defs4">
    <inkscape:path-effect
       effect="skeletal"
       id="path-effect4221"
       is_visible="true"
       pattern="m -227.28432,513.87679 1,0"
       copytype="single_stretched"
       prop_scale="1"
       scale_y_rel="false"
       spacing="0"
       normal_offset="0"
       tang_offset="0"
       prop_units="false"
       vertical_pattern="false"
       fuse_tolerance="0" />
    <inkscape:path-effect
       fuse_tolerance="0"
       vertical_pattern="false"
       prop_units="false"
       tang_offset="0"
       normal_offset="0"
       spacing="0"
       scale_y_rel="false"
       prop_scale="1"
       copytype="single_stretched"
       pattern="m -227.28432,513.87679 1,0"
       is_visible="true"
       id="path-effect4205"
       effect="skeletal" />
    <linearGradient
       id="linearGradient4189"
       inkscape:collect="always">
      <stop
         id="stop4191"
         offset="0"
         style="stop-color:#22b1ee;stop-opacity:1;" />
      <stop
         id="stop4193"
         offset="1"
         style="stop-color:#22b1ee;stop-opacity:0;" />
    </linearGradient>
    <linearGradient
       id="linearGradient4169"
       inkscape:collect="always">
      <stop
         id="stop4171"
         offset="0"
         style="stop-color:#2d388a;stop-opacity:1;" />
      <stop
         id="stop4173"
         offset="1"
         style="stop-color:#2d388a;stop-opacity:0;" />
    </linearGradient>
    <linearGradient
       gradientUnits="userSpaceOnUse"
       y2="840.93359"
       x2="285.71426"
       y1="840.93365"
       x1="170"
       id="linearGradient4175"
       xlink:href="#linearGradient4169"
       inkscape:collect="always" />
    <linearGradient
       gradientTransform="translate(131.39428,4.1444709)"
       gradientUnits="userSpaceOnUse"
       y2="-842.33246"
       x2="-290.34064"
       y1="-846.61908"
       x1="-424.57739"
       id="linearGradient4195"
       xlink:href="#linearGradient4189"
       inkscape:collect="always" />
    <linearGradient
       gradientTransform="translate(12.857143,1.4285714)"
       y2="846.64789"
       x2="359.99997"
       y1="839.50507"
       x1="160"
       gradientUnits="userSpaceOnUse"
       id="linearGradient4201"
       xlink:href="#linearGradient4169"
       inkscape:collect="always" />
    <inkscape:path-effect
       effect="skeletal"
       id="path-effect4221-2"
       is_visible="true"
       pattern="m -323.85287,494.68389 1,0"
       copytype="single_stretched"
       prop_scale="1"
       scale_y_rel="false"
       spacing="0"
       normal_offset="0"
       tang_offset="0"
       prop_units="false"
       vertical_pattern="false"
       fuse_tolerance="0" />
    <inkscape:path-effect
       effect="skeletal"
       id="path-effect4221-6"
       is_visible="true"
       pattern="m -126.87823,567.00877 1,0"
       copytype="single_stretched"
       prop_scale="1"
       scale_y_rel="false"
       spacing="0"
       normal_offset="0"
       tang_offset="0"
       prop_units="false"
       vertical_pattern="false"
       fuse_tolerance="0" />
    <inkscape:path-effect
       effect="skeletal"
       id="path-effect4221-6-4"
       is_visible="true"
       pattern="m 10.502521,927.63323 1,0"
       copytype="single_stretched"
       prop_scale="1"
       scale_y_rel="false"
       spacing="0"
       normal_offset="0"
       tang_offset="0"
       prop_units="false"
       vertical_pattern="false"
       fuse_tolerance="0" />
    <inkscape:path-effect
       effect="skeletal"
       id="path-effect4221-2-5"
       is_visible="true"
       pattern="m -186.47212,855.30835 1,0"
       copytype="single_stretched"
       prop_scale="1"
       scale_y_rel="false"
       spacing="0"
       normal_offset="0"
       tang_offset="0"
       prop_units="false"
       vertical_pattern="false"
       fuse_tolerance="0" />
    <inkscape:path-effect
       effect="skeletal"
       id="path-effect4221-8"
       is_visible="true"
       pattern="m -89.903569,874.50125 1,0"
       copytype="single_stretched"
       prop_scale="1"
       scale_y_rel="false"
       spacing="0"
       normal_offset="0"
       tang_offset="0"
       prop_units="false"
       vertical_pattern="false"
       fuse_tolerance="0" />
    <inkscape:path-effect
       fuse_tolerance="0"
       vertical_pattern="false"
       prop_units="false"
       tang_offset="0"
       normal_offset="0"
       spacing="0"
       scale_y_rel="false"
       prop_scale="1"
       copytype="single_stretched"
       pattern="m -89.903569,874.50125 1,0"
       is_visible="true"
       id="path-effect4205-9"
       effect="skeletal" />
  </defs>
  <sodipodi:namedview
     inkscape:document-rotation="0"
     inkscape:window-maximized="1"
     inkscape:window-y="-11"
     inkscape:window-x="-11"
     inkscape:window-height="986"
     inkscape:window-width="1920"
     units="px"
     showgrid="false"
     inkscape:current-layer="layer1"
     inkscape:document-units="px"
     inkscape:cy="-50.956496"
     inkscape:cx="237.57548"
     inkscape:zoom="0.49497475"
     inkscape:pageshadow="2"
     inkscape:pageopacity="0.0"
     borderopacity="1.0"
     bordercolor="#666666"
     pagecolor="#ffffff"
     id="base">
    <inkscape:grid
       id="grid4207"
       type="xygrid" />
  </sodipodi:namedview>
  <metadata
     id="metadata7">
    <rdf:RDF>
      <cc:Work
         rdf:about="">
        <dc:format>image/svg+xml</dc:format>
        <dc:type
           rdf:resource="http://purl.org/dc/dcmitype/StillImage" />
        <dc:title></dc:title>
      </cc:Work>
    </rdf:RDF>
  </metadata>
  <g
     transform="translate(0,-652.26769)"
     id="layer1"
     inkscape:groupmode="layer"
     inkscape:label="Layer 1">
    <text
       inkscape:export-ydpi="96"
       inkscape:export-xdpi="96"
       transform="scale(0.81253105,1.2307222)"
       id="text4136"
       y="751.53223"
       x="457.1936"
       style="font-style:normal;font-weight:normal;line-height:0%;font-family:sans-serif;letter-spacing:0px;word-spacing:0px;fill:#000000;fill-opacity:1;stroke:none;stroke-width:1px;stroke-linecap:butt;stroke-linejoin:miter;stroke-opacity:1"
       xml:space="preserve"><tspan
         dx="0"
         dy="0"
         style="font-style:normal;font-variant:normal;font-weight:bold;font-stretch:normal;font-size:173.387px;line-height:1.25;font-family:sans-serif;-inkscape-font-specification:'sans-serif Bold';letter-spacing:5.12874px;word-spacing:0px"
         y="751.53223"
         x="457.1936"
         id="tspan4138"
         sodipodi:role="line">RyderHub</tspan></text>
    <path
       inkscape:export-ydpi="96"
       inkscape:export-xdpi="96"
       d="M 74.097911,781.90182 A 140,138.57143 0 0 1 259.52787,713.4295 140,138.57143 0 0 1 328.84847,896.91468 140,138.57143 0 0 1 143.52498,965.66881 140,138.57143 0 0 1 73.919742,782.28923"
       sodipodi:open="true"
       sodipodi:end="3.5672261"
       sodipodi:start="3.5702979"
       sodipodi:ry="138.57143"
       sodipodi:rx="140"
       sodipodi:cy="839.50507"
       sodipodi:cx="201.42857"
       sodipodi:type="arc"
       id="path4150"
       style="opacity:1;fill:url(#linearGradient4175);fill-opacity:1;fill-rule:evenodd;stroke:none;stroke-width:1.546;stroke-miterlimit:4;stroke-dasharray:none;stroke-opacity:1" />
    <path
       inkscape:export-ydpi="96"
       inkscape:export-xdpi="96"
       transform="matrix(-0.99995202,0.00979593,-0.00979593,-0.99995202,0,0)"
       style="opacity:1;fill:url(#linearGradient4195);fill-opacity:1;fill-rule:evenodd;stroke:none;stroke-width:1.546;stroke-miterlimit:4;stroke-dasharray:none;stroke-opacity:1"
       id="path4177"
       sodipodi:type="arc"
       sodipodi:cx="-203.18071"
       sodipodi:cy="-842.96442"
       sodipodi:rx="140"
       sodipodi:ry="138.57143"
       sodipodi:start="3.5702979"
       sodipodi:end="3.5672261"
       sodipodi:open="true"
       d="m -330.51137,-900.56767 a 140,138.57143 0 0 1 185.42996,-68.47231 140,138.57143 0 0 1 69.320597,183.48517 140,138.57143 0 0 1 -185.323487,68.75414 140,138.57143 0 0 1 -69.60524,-183.37958" />
    <path
       inkscape:export-ydpi="96"
       inkscape:export-xdpi="96"
       style="opacity:1;fill:url(#linearGradient4201);fill-opacity:1;fill-rule:evenodd;stroke:none;stroke-width:1.546;stroke-miterlimit:4;stroke-dasharray:none;stroke-opacity:1"
       id="path4197"
       sodipodi:type="arc"
       sodipodi:cx="214.28572"
       sodipodi:cy="840.93365"
       sodipodi:rx="140"
       sodipodi:ry="138.57143"
       sodipodi:start="3.5702979"
       sodipodi:end="3.5672261"
       sodipodi:open="true"
       d="M 86.955058,783.3304 A 140,138.57143 0 0 1 272.38502,714.85809 140,138.57143 0 0 1 341.70562,898.34327 140,138.57143 0 0 1 156.38213,967.0974 140,138.57143 0 0 1 86.776889,783.71782" />
    <path
       inkscape:export-ydpi="96"
       inkscape:export-xdpi="96"
       sodipodi:nodetypes="ccsccsc"
       inkscape:connector-curvature="0"
       inkscape:original-d="m 113.75845,919.99732 180.09484,0 c 0,0 11.1592,-3.09879 11.94926,-15.23466 0.79462,-12.20596 -11.93085,-16.21913 -11.93085,-16.21913 l -179.76536,-0.97534 c 0,0 -12.06955,3.04641 -11.33696,16.00935 0.73261,12.96297 10.98907,16.41978 10.98907,16.41978 z"
       inkscape:path-effect="#path-effect4205"
       id="path4203"
       d="m 113.75845,919.99732 h 180.09484 c 0.0116,-0.003 0.0234,-0.007 0.0349,-0.0101 0.0321,-0.009 0.064,-0.0193 0.096,-0.0293 0.1206,-0.0379 0.24033,-0.0785 0.35947,-0.1207 0,0 1e-5,0 1e-5,0 0,0 10e-6,-10e-6 10e-6,-10e-6 0.43399,-0.15383 0.86016,-0.32933 1.27934,-0.51989 l 1e-5,0 0,0 c 1.39789,-0.63548 2.71899,-1.44079 3.92111,-2.39623 0,0 10e-6,-10e-6 10e-6,-10e-6 l 0,0 c 3.67961,-2.92456 5.95307,-7.46802 6.25842,-12.15836 l 0,-10e-6 c 0.1716,-2.63593 -0.31384,-5.32825 -1.52491,-7.67578 -0.99827,-1.93503 -2.44884,-3.61901 -4.13096,-5.00152 -1e-5,0 -1e-5,0 -1e-5,-1e-5 -1.30993,-1.0766 -2.75776,-1.98261 -4.28573,-2.71765 0,0 -1e-5,0 -1e-5,0 0,-10e-6 -10e-6,-10e-6 -10e-6,-10e-6 -0.47016,-0.22618 -0.94816,-0.43635 -1.43484,-0.62436 -1e-5,0 -1e-5,0 -1e-5,0 -0.13469,-0.052 -0.27004,-0.10237 -0.40637,-0.14991 v 0 c -0.0361,-0.0126 -0.0724,-0.025 -0.10867,-0.0371 h 0 c -0.0129,-0.004 -0.0263,-0.009 -0.0393,-0.0128 l -179.76542,-0.97536 c -0.0125,0.003 -0.0251,0.007 -0.0375,0.01 -0.0345,0.009 -0.0689,0.0191 -0.10324,0.029 -0.12938,0.0375 -0.25785,0.078 -0.38571,0.12036 h 0 l -2e-5,0 h 0 c -0.46188,0.15307 -0.91557,0.33038 -1.36146,0.52515 -1e-5,1e-5 -1e-5,1e-5 -2e-5,1e-5 l 0,0 c -1.45772,0.63675 -2.83433,1.46324 -4.067,2.4687 -1e-5,0 -1e-5,10e-6 -2e-5,10e-6 h 0 c -3.74712,3.05644 -5.65483,8.02832 -5.38199,12.85619 l 0,0 0,2e-5 c 0.27527,4.87064 2.19773,9.72322 5.75698,13.05948 1e-5,1e-5 1e-5,1e-5 2e-5,2e-5 1.08525,1.01725 2.29705,1.90097 3.60453,2.61026 l 0,0 2e-5,1e-5 c 0.38338,0.20798 0.77497,0.40121 1.17621,0.57223 10e-6,10e-6 2e-5,10e-6 2e-5,10e-6 0.10938,0.0466 0.21947,0.0916 0.33065,0.13376 0.0293,0.0111 0.0588,0.0221 0.0883,0.0327 0.0106,0.004 0.0215,0.008 0.0322,0.0113 5e-5,10e-6 7e-5,2e-5 7e-5,2e-5 z"
       style="fill:#ffffff;fill-opacity:1;fill-rule:evenodd;stroke:none;stroke-width:1px;stroke-linecap:butt;stroke-linejoin:miter;stroke-opacity:1" />
    <path
       inkscape:export-ydpi="96"
       inkscape:export-xdpi="96"
       style="fill:#ffffff;fill-opacity:1;fill-rule:evenodd;stroke:none;stroke-width:1px;stroke-linecap:butt;stroke-linejoin:miter;stroke-opacity:1"
       d="m 190.5308,753.14851 0.0221,155.00556 2.60993,4.89951 10e-6,10e-6 c 2.46575,3.14801 6.31628,5.12037 10.30634,5.38366 l 1e-5,0 v 0 c 2.23607,0.14758 4.52056,-0.27277 6.50567,-1.31255 h 0 c 1.64504,-0.86166 3.07075,-2.11146 4.23918,-3.55486 0,0 0,0 10e-6,0 0.91422,-1.12938 1.6816,-2.37557 2.30372,-3.68868 10e-6,-10e-6 10e-6,-10e-6 10e-6,-10e-6 0.1919,-0.40505 0.37013,-0.81669 0.5295,-1.2356 0,-10e-6 1e-5,-10e-6 1e-5,-10e-6 0,-10e-6 0,-10e-6 0,-10e-6 0.0442,-0.11613 0.0869,-0.23281 0.12727,-0.35031 0.0107,-0.0312 0.0213,-0.0625 0.0315,-0.0939 0.004,-0.0113 0.007,-0.0229 0.011,-0.0342 l 0.80481,-154.7221 c -0.003,-0.0109 -0.006,-0.0219 -0.009,-0.0327 -0.008,-0.0298 -0.0163,-0.0595 -0.0247,-0.0892 -0.0318,-0.11152 -0.0663,-0.22228 -0.10228,-0.33251 -1e-5,-10e-6 -1e-5,-2e-5 -1e-5,-2e-5 l 0,0 c -0.12987,-0.39754 -0.28036,-0.78822 -0.44574,-1.17234 0,-1e-5 -1e-5,-1e-5 -1e-5,-2e-5 -0.53924,-1.25242 -1.23947,-2.43717 -2.09379,-3.49995 0,0 0,-10e-6 -1e-5,-10e-6 -2.57581,-3.20433 -6.79336,-4.86536 -10.89786,-4.62941 -1e-5,0 -1e-5,0 -2e-5,0 -4.14027,0.23801 -8.2553,1.9074 -11.06856,4.95437 0,10e-6 -1e-5,10e-6 -1e-5,2e-5 l -2.84953,4.50513 z"
       id="path4219"
       inkscape:path-effect="#path-effect4221"
       inkscape:original-d="m 190.5308,753.14851 0.0221,155.00556 c 0,0 2.62831,9.60431 12.91629,10.28318 10.34739,0.68291 13.7479,-10.27017 13.7479,-10.27017 l 0.80479,-154.72203 c 0,0 -2.58401,-10.38786 -13.57294,-9.75615 -10.98898,0.6317 -13.91815,9.45961 -13.91815,9.45961 z"
       inkscape:connector-curvature="0"
       sodipodi:nodetypes="ccsccsc" />
    <path
       inkscape:export-ydpi="96"
       inkscape:export-xdpi="96"
       style="fill:#ffffff;fill-opacity:1;fill-rule:evenodd;stroke:none;stroke-width:1px;stroke-linecap:butt;stroke-linejoin:miter;stroke-opacity:1"
       d="m 141.00827,810.88799 0.0221,89.98159 2.61596,2.84866 1e-5,0 c 2.92656,2.16615 6.66196,2.98139 10.3003,3.12075 l 0,0 1e-5,0 v 0 c 3.76714,0.14434 7.67462,-0.62619 10.73935,-2.82155 v 0 c 0,0 0,0 0,0 0,0 0,-10e-6 1e-5,-10e-6 0.85498,-0.61245 1.64005,-1.32628 2.30551,-2.14068 1e-5,0 1e-5,0 1e-5,0 0.18857,-0.23078 0.36767,-0.46953 0.53117,-0.7187 0,0 0,0 0,0 1e-5,0 1e-5,-10e-6 1e-5,-10e-6 0.0442,-0.0673 0.0872,-0.13539 0.12825,-0.20467 0.0109,-0.0183 0.0216,-0.0368 0.032,-0.0553 0.004,-0.007 0.008,-0.0139 0.0115,-0.0208 l 0.80484,-89.81709 -2.68106,-2.98042 c -3.08745,-2.22649 -7.08747,-2.81003 -10.89187,-2.68307 0,0 -1e-5,0 -1e-5,0 -3.85063,0.1285 -7.79919,0.82309 -11.06203,2.87191 -1e-5,1e-5 -1e-5,1e-5 -1e-5,1e-5 l -2.85604,2.61929 z"
       id="path4219-5"
       inkscape:path-effect="#path-effect4221-2"
       inkscape:original-d="m 141.00827,810.88799 0.0221,89.98159 c 0,0 2.62829,5.57536 12.91628,5.96941 10.34744,0.39648 13.74793,-5.96185 13.74793,-5.96185 l 0.80479,-89.81699 c 0,0 -2.584,-6.03021 -13.57293,-5.66349 -10.98899,0.3667 -13.91816,5.49133 -13.91816,5.49133 z"
       inkscape:connector-curvature="0"
       sodipodi:nodetypes="ccsccsc" />
    <path
       inkscape:export-ydpi="96"
       inkscape:export-xdpi="96"
       style="fill:#ffffff;fill-opacity:1;fill-rule:evenodd;stroke:none;stroke-width:1px;stroke-linecap:butt;stroke-linejoin:miter;stroke-opacity:1"
       d="m 242.02133,783.16765 0.0221,120.3261 2.61248,3.80588 1e-5,0 c 2.69381,2.66827 6.51716,3.98269 10.3038,4.17665 l 1e-5,0 c 3.9028,0.19994 7.92128,-1.07201 10.74251,-3.77617 0,0 10e-6,0 10e-6,0 0,0 0,-10e-6 0,-10e-6 0.88687,-0.85006 1.66427,-1.8146 2.3045,-2.86305 0,0 0,0 0,-10e-6 0.19058,-0.31209 0.36922,-0.63164 0.53022,-0.95997 0,-10e-6 0,-10e-6 1e-5,-10e-6 0.0442,-0.0901 0.0871,-0.18091 0.12768,-0.27269 0.0108,-0.0244 0.0214,-0.0488 0.0317,-0.0734 0.004,-0.009 0.008,-0.0181 0.0112,-0.0271 l 0.80482,-120.1061 v 0 l -2.67757,-3.98214 -10e-6,-1e-5 c -2.83122,-2.73246 -6.96453,-3.76666 -10.89536,-3.59124 -1e-5,0 -1e-5,0 -2e-5,0 -3.97169,0.17723 -8.02203,1.28592 -11.06575,3.84357 0,0 0,0 -1e-5,10e-6 -0.83726,0.70355 -1.59358,1.50744 -2.21394,2.40808 -10e-6,0 -10e-6,0 -10e-6,10e-6 -0.17504,0.25412 -0.33939,0.51583 -0.48627,0.78721 l 0,0 0,10e-6 c -0.0396,0.0732 -0.078,0.1471 -0.11409,0.22209 h 0 c -0.01,0.0198 -0.0189,0.0397 -0.028,0.0598 -0.003,0.007 -0.007,0.0149 -0.01,0.0224 z"
       id="path4219-6"
       inkscape:path-effect="#path-effect4221-6"
       inkscape:original-d="m 242.02133,783.16765 0.0221,120.3261 c 0,0 2.62831,7.45556 12.9163,7.98253 10.34742,0.5301 13.74793,-7.97243 13.74793,-7.97243 l 0.80479,-120.10602 c 0,0 -2.584,-8.06378 -13.57294,-7.57339 -10.98898,0.49036 -13.91814,7.34321 -13.91814,7.34321 z"
       inkscape:connector-curvature="0"
       sodipodi:nodetypes="ccsccsc" />
    <path
       sodipodi:nodetypes="ccsccsc"
       inkscape:connector-curvature="0"
       inkscape:original-d="m 230.1216,1280.6218 199.80131,0 c 0,0 12.38026,-3.1698 13.25677,-15.5838 0.88158,-12.4856 -13.23635,-16.5908 -13.23635,-16.5908 l -199.43577,-0.9977 c 0,0 -13.39024,3.1163 -12.57748,16.3762 0.81277,13.2601 12.19152,16.7961 12.19152,16.7961 z"
       inkscape:path-effect="#path-effect4205-9"
       id="path4203-9"
       d="m 230.1216,1280.6218 h 199.80131 c 0.0128,-0 0.0258,-0.01 0.0384,-0.01 0.0355,-0.01 0.0709,-0.02 0.1062,-0.03 0.13354,-0.039 0.26625,-0.08 0.39839,-0.1233 0,0 1e-5,0 1e-5,0 l 0,0 c 0.48021,-0.1569 0.95294,-0.3363 1.41888,-0.5315 0,0 0,0 10e-6,0 1.53855,-0.6448 3.00467,-1.4649 4.35031,-2.4508 h 0 l 1e-5,0 h 0 c 1.77614,-1.3014 3.33785,-2.9089 4.5084,-4.7739 v 0 c 0,0 0,0 10e-6,0 0,0 0,0 0,0 1.4397,-2.2938 2.24537,-4.9626 2.43611,-7.6641 0.19134,-2.7099 -0.36552,-5.4817 -1.69218,-7.8524 -1.12616,-2.0124 -2.74567,-3.7236 -4.58376,-5.1163 l -6.96036,-3.6221 -199.43582,-0.9977 -6e-5,0 -6.60528,3.2245 c -1e-5,0 -2e-5,0 -2e-5,0 -1.78219,1.3401 -3.31247,3.0351 -4.35392,5.0068 -1.30947,2.479 -1.78973,5.3465 -1.6182,8.1449 0,0 0,0 0,0 0.31051,5.0658 2.54797,10.0415 6.38817,13.3599 l 0,0 2e-5,0 c 1.21582,1.0506 2.5619,1.951 3.99908,2.6697 0,0 1e-5,0 2e-5,0 h 0 c 0.42636,0.2132 0.86077,0.4107 1.30445,0.585 10e-6,0 2e-5,0 3e-5,0 0,0 1e-5,0 2e-5,0 0.12134,0.048 0.24336,0.094 0.36643,0.1367 0.0325,0.011 0.0651,0.023 0.0978,0.033 0.0117,0 0.0237,0.01 0.0355,0.011 5e-5,0 7e-5,0 7e-5,0 z"
       style="fill:#e10808;fill-opacity:1;fill-rule:evenodd;stroke:none;stroke-width:1px;stroke-linecap:butt;stroke-linejoin:miter;stroke-opacity:1" />
    <path
       style="fill:#e10808;fill-opacity:1;fill-rule:evenodd;stroke:none;stroke-width:1px;stroke-linecap:butt;stroke-linejoin:miter;stroke-opacity:1"
       d="m 315.29459,1109.9496 0.0245,158.5575 2.89521,5.0114 1e-5,0 c 2.81795,3.3174 7.0898,5.2431 11.43441,5.5075 2.47,0.1503 4.98951,-0.2666 7.21779,-1.3428 1.79652,-0.8677 3.38687,-2.1373 4.7031,-3.6366 0,0 10e-6,0 10e-6,0 l 3.33131,-5.5261 0.89287,-158.2675 -2e-5,-10e-5 -2.96747,-5.2438 h 0 l -10e-6,0 c -2.95044,-3.3844 -7.60703,-4.9735 -12.09062,-4.7358 -10e-6,0 -10e-6,0 -2e-5,0 -4.52511,0.2398 -9.0738,1.8661 -12.28012,5.0682 0,0 -10e-6,0 -10e-6,10e-5 -0.94897,0.9477 -1.78249,2.0131 -2.45493,3.1735 -1e-5,0 -1e-5,0 -1e-5,0 -0.19523,0.3369 -0.37709,0.6817 -0.53843,1.0361 v 0 c -0.0439,0.096 -0.0862,0.1934 -0.12599,0.2916 l 0,0 c -0.0105,0.026 -0.0208,0.052 -0.0308,0.078 -0.004,0.01 -0.007,0.019 -0.0107,0.029 z"
       id="path4219-9"
       inkscape:path-effect="#path-effect4221-8"
       inkscape:original-d="m 315.29459,1109.9496 0.0245,158.5575 c 0,0 2.91591,9.8244 14.32963,10.5189 11.47963,0.6985 15.25223,-10.5056 15.25223,-10.5056 l 0.89285,-158.2674 c 0,0 -2.86675,-10.6259 -15.05812,-9.9797 -12.19143,0.6461 -15.44111,9.6763 -15.44111,9.6763 z"
       inkscape:connector-curvature="0"
       sodipodi:nodetypes="ccsccsc" />
    <path
       style="fill:#e10808;fill-opacity:1;fill-rule:evenodd;stroke:none;stroke-width:1px;stroke-linecap:butt;stroke-linejoin:miter;stroke-opacity:1"
       d="m 260.35317,1169.0122 0.0245,92.0435 c 0.012,0.023 0.0254,0.047 0.0384,0.069 0.0364,0.063 0.075,0.1246 0.1148,0.1854 v 0 c 0.14955,0.2287 0.31581,0.4462 0.49137,0.6556 0,0 0,0 0,0 0.64825,0.7733 1.42354,1.4345 2.25695,2.0034 0,0 0,0 0,0 3.30944,2.2588 7.42374,3.0513 11.42807,3.1927 l 0,0 10e-6,0 v 0 c 4.14997,0.1466 8.45026,-0.5979 11.91516,-2.8866 0,0 0,0 0,0 0.9391,-0.6203 1.81116,-1.3475 2.55758,-2.1898 1e-5,0 1e-5,0 1e-5,0 0.20833,-0.2351 0.40697,-0.4791 0.58909,-0.735 0,0 0,0 0,0 0,0 10e-6,0 10e-6,0 0.0489,-0.069 0.0966,-0.1383 0.14216,-0.2092 0.012,-0.019 0.0239,-0.038 0.0355,-0.056 0.004,-0.01 0.009,-0.014 0.0127,-0.021 l 0.89291,-91.8753 c -0.003,-0.01 -0.007,-0.014 -0.01,-0.02 -0.009,-0.018 -0.0184,-0.036 -0.0279,-0.054 -0.036,-0.068 -0.0746,-0.1336 -0.11443,-0.1988 -10e-6,0 -10e-6,0 -10e-6,0 0,0 0,0 -1e-5,0 -0.14895,-0.2437 -0.31713,-0.4752 -0.49628,-0.6976 0,0 -10e-6,0 -10e-6,0 -0.6546,-0.8125 -1.45637,-1.4999 -2.3252,-2.0777 0,0 -1e-5,0 -1e-5,0 -3.49346,-2.3231 -7.8909,-2.874 -12.08429,-2.7449 l -1e-5,0 c -4.24618,0.1306 -8.59701,0.8094 -12.27335,2.9382 h 0 c 0,0 -10e-6,0 -10e-6,0 -0.88832,0.5144 -1.73165,1.1159 -2.45739,1.8418 0,0 -10e-6,0 -10e-6,0 -0.19091,0.191 -0.37364,0.3905 -0.54045,0.6029 -0.0438,0.056 -0.0865,0.1124 -0.12711,0.1705 -0.0145,0.021 -0.0293,0.042 -0.0427,0.064 -5e-5,10e-5 -7e-5,10e-5 -7e-5,10e-5 z"
       id="path4219-5-8"
       inkscape:path-effect="#path-effect4221-2-5"
       inkscape:original-d="m 260.35317,1169.0122 0.0245,92.0435 c 0,0 2.91589,5.7031 14.32962,6.1062 11.47968,0.4056 15.25227,-6.0984 15.25227,-6.0984 l 0.89285,-91.8752 c 0,0 -2.86675,-6.1684 -15.05812,-5.7932 -12.19143,0.3751 -15.44112,5.6171 -15.44112,5.6171 z"
       inkscape:connector-curvature="0"
       sodipodi:nodetypes="ccsccsc" />
    <path
       style="fill:#e10808;fill-opacity:1;fill-rule:evenodd;stroke:none;stroke-width:1px;stroke-linecap:butt;stroke-linejoin:miter;stroke-opacity:1"
       d="m 372.41935,1140.6567 0.0245,123.0833 c 0.003,0.01 0.007,0.017 0.01,0.025 0.009,0.022 0.0184,0.044 0.0279,0.066 0.036,0.083 0.0744,0.1653 0.11421,0.2468 0.14688,0.3007 0.31264,0.592 0.49029,0.8756 0,0 0,0 0,0 0.6216,0.9924 1.39099,1.8896 2.25561,2.6793 0,0 0,0 0,0 3.06554,2.7999 7.28458,4.0769 11.43172,4.2728 l 1e-5,0 c 4.28061,0.2022 8.70745,-1.0251 11.91844,-3.8631 l 0,0 3.33379,-4.2919 0.89289,-122.8584 -2.97016,-4.073 c -3.2262,-2.8711 -7.77288,-3.8514 -12.08797,-3.6739 -1e-5,0 -1e-5,0 -2e-5,0 -4.36228,0.1795 -8.82598,1.2579 -12.27715,3.9321 l -3.16388,3.5793 z"
       id="path4219-6-7"
       inkscape:path-effect="#path-effect4221-6-4"
       inkscape:original-d="m 372.41935,1140.6567 0.0245,123.0833 c 0,0 2.9159,7.6264 14.32963,8.1655 11.47967,0.5422 15.25227,-8.1551 15.25227,-8.1551 l 0.89285,-122.8583 c 0,0 -2.86675,-8.2485 -15.05813,-7.7469 -12.19142,0.5016 -15.4411,7.5115 -15.4411,7.5115 z"
       inkscape:connector-curvature="0"
       sodipodi:nodetypes="ccsccsc" />
    <path
       inkscape:export-ydpi="96"
       inkscape:export-xdpi="96"
       d="M 69.145117,779.70335 A 151.76112,145.75093 0 0 1 270.15268,707.68343 151.76112,145.75093 0 0 1 345.29677,900.67513 151.76112,145.75093 0 0 1 144.40462,972.99147 151.76112,145.75093 0 0 1 68.95198,780.11084"
       sodipodi:open="true"
       sodipodi:end="3.5672261"
       sodipodi:start="3.5702979"
       sodipodi:ry="145.75093"
       sodipodi:rx="151.76112"
       sodipodi:cy="840.29108"
       sodipodi:cx="207.17258"
       sodipodi:type="arc"
       id="path4285"
       style="opacity:1;fill:none;fill-opacity:1;fill-rule:evenodd;stroke:#000000;stroke-width:1.02280593;stroke-miterlimit:4;stroke-dasharray:none;stroke-opacity:1" />
  </g>
</svg>
