<?xml version="1.0" encoding="UTF-8" standalone="no"?>
<svg
   xmlns:dc="http://purl.org/dc/elements/1.1/"
   xmlns:cc="http://creativecommons.org/ns#"
   xmlns:rdf="http://www.w3.org/1999/02/22-rdf-syntax-ns#"
   xmlns:svg="http://www.w3.org/2000/svg"
   xmlns="http://www.w3.org/2000/svg"
   xmlns:xlink="http://www.w3.org/1999/xlink"
   xmlns:sodipodi="http://sodipodi.sourceforge.net/DTD/sodipodi-0.dtd"
   xmlns:inkscape="http://www.inkscape.org/namespaces/inkscape"
   width="50"
   height="50"
   viewBox="0 0 50.000001 50"
   id="svg2"
   version="1.1"
   inkscape:version="1.0 (4035a4fb49, 2020-05-01)"
   sodipodi:docname="drawing1.svg"
   inkscape:export-filename="C:\Users\John\Desktop\angular-firebase\my-project\src\app\images\drawing.png"
   inkscape:export-xdpi="96"
   inkscape:export-ydpi="96">
  <defs
     id="defs4">
    <inkscape:path-effect
       hide_knot="false"
       lpeversion="0"
       fuse_tolerance="0"
       vertical_pattern="false"
       prop_units="false"
       tang_offset="0"
       normal_offset="0"
       spacing="0"
       scale_y_rel="false"
       prop_scale="1"
       copytype="single_stretched"
       pattern="m -36.630245,630.80818 h 0.144847"
       is_visible="true"
       id="path-effect4221"
       effect="skeletal" />
    <inkscape:path-effect
       hide_knot="false"
       lpeversion="0"
       effect="skeletal"
       id="path-effect4205"
       is_visible="true"
       pattern="m -36.630245,630.80818 h 0.144847"
       copytype="single_stretched"
       prop_scale="1"
       scale_y_rel="false"
       spacing="0"
       normal_offset="0"
       tang_offset="0"
       prop_units="false"
       vertical_pattern="false"
       fuse_tolerance="0" />
    <linearGradient
       inkscape:collect="always"
       id="linearGradient4189">
      <stop
         style="stop-color:#22b1ee;stop-opacity:1;"
         offset="0"
         id="stop4191" />
      <stop
         style="stop-color:#22b1ee;stop-opacity:0;"
         offset="1"
         id="stop4193" />
    </linearGradient>
    <linearGradient
       inkscape:collect="always"
       id="linearGradient4169">
      <stop
         style="stop-color:#2d388a;stop-opacity:1;"
         offset="0"
         id="stop4171" />
      <stop
         style="stop-color:#2d388a;stop-opacity:0;"
         offset="1"
         id="stop4173" />
    </linearGradient>
    <linearGradient
       gradientTransform="matrix(0.14484768,0,0,0.14391722,-3.7086421,556.85243)"
       inkscape:collect="always"
       xlink:href="#linearGradient4169"
       id="linearGradient4175"
       x1="170"
       y1="840.93365"
       x2="285.71426"
       y2="840.93359"
       gradientUnits="userSpaceOnUse" />
    <linearGradient
       inkscape:collect="always"
       xlink:href="#linearGradient4189"
       id="linearGradient4195"
       x1="-424.57739"
       y1="-846.61908"
       x2="-290.34064"
       y2="-842.33246"
       gradientUnits="userSpaceOnUse"
       gradientTransform="matrix(0.14484757,0,0,0.14391731,28.230755,-556.1935)" />
    <linearGradient
       inkscape:collect="always"
       xlink:href="#linearGradient4169"
       id="linearGradient4201"
       gradientUnits="userSpaceOnUse"
       x1="160"
       y1="839.50507"
       x2="359.99997"
       y2="846.64789"
       gradientTransform="matrix(0.14484768,0,0,0.14391722,-1.8463145,557.05802)" />
    <inkscape:path-effect
       hide_knot="false"
       lpeversion="0"
       fuse_tolerance="0"
       vertical_pattern="false"
       prop_units="false"
       tang_offset="0"
       normal_offset="0"
       spacing="0"
       scale_y_rel="false"
       prop_scale="1"
       copytype="single_stretched"
       pattern="m -50.617975,628.04598 h 0.144848"
       is_visible="true"
       id="path-effect4221-2"
       effect="skeletal" />
    <inkscape:path-effect
       hide_knot="false"
       lpeversion="0"
       fuse_tolerance="0"
       vertical_pattern="false"
       prop_units="false"
       tang_offset="0"
       normal_offset="0"
       spacing="0"
       scale_y_rel="false"
       prop_scale="1"
       copytype="single_stretched"
       pattern="m -22.086657,638.45479 h 0.144847"
       is_visible="true"
       id="path-effect4221-6"
       effect="skeletal" />
    <inkscape:path-effect
       hide_knot="false"
       lpeversion="0"
       fuse_tolerance="0"
       vertical_pattern="false"
       prop_units="false"
       tang_offset="0"
       normal_offset="0"
       spacing="0"
       scale_y_rel="false"
       prop_scale="1"
       copytype="single_stretched"
       pattern="m 10.502521,927.63323 h 1"
       is_visible="true"
       id="path-effect4221-6-4"
       effect="skeletal" />
    <inkscape:path-effect
       hide_knot="false"
       lpeversion="0"
       fuse_tolerance="0"
       vertical_pattern="false"
       prop_units="false"
       tang_offset="0"
       normal_offset="0"
       spacing="0"
       scale_y_rel="false"
       prop_scale="1"
       copytype="single_stretched"
       pattern="m -186.47212,855.30835 h 1"
       is_visible="true"
       id="path-effect4221-2-5"
       effect="skeletal" />
    <inkscape:path-effect
       hide_knot="false"
       lpeversion="0"
       fuse_tolerance="0"
       vertical_pattern="false"
       prop_units="false"
       tang_offset="0"
       normal_offset="0"
       spacing="0"
       scale_y_rel="false"
       prop_scale="1"
       copytype="single_stretched"
       pattern="m -89.903569,874.50125 h 1"
       is_visible="true"
       id="path-effect4221-8"
       effect="skeletal" />
    <inkscape:path-effect
       hide_knot="false"
       lpeversion="0"
       effect="skeletal"
       id="path-effect4205-9"
       is_visible="true"
       pattern="m -89.903569,874.50125 h 1"
       copytype="single_stretched"
       prop_scale="1"
       scale_y_rel="false"
       spacing="0"
       normal_offset="0"
       tang_offset="0"
       prop_units="false"
       vertical_pattern="false"
       fuse_tolerance="0" />
  </defs>
  <sodipodi:namedview
     id="base"
     pagecolor="#ffffff"
     bordercolor="#666666"
     borderopacity="1.0"
     inkscape:pageopacity="0.0"
     inkscape:pageshadow="2"
     inkscape:zoom="2.7075794"
     inkscape:cx="49.03918"
     inkscape:cy="86.338946"
     inkscape:document-units="px"
     inkscape:current-layer="layer1"
     showgrid="false"
     units="px"
     inkscape:window-width="1920"
     inkscape:window-height="986"
     inkscape:window-x="-11"
     inkscape:window-y="-11"
     inkscape:window-maximized="1"
     inkscape:document-rotation="0">
    <inkscape:grid
       type="xygrid"
       id="grid4207" />
  </sodipodi:namedview>
  <metadata
     id="metadata7">
    <rdf:RDF>
      <cc:Work
         rdf:about="">
        <dc:format>image/svg+xml</dc:format>
        <dc:type
           rdf:resource="http://purl.org/dc/dcmitype/StillImage" />
        <dc:title></dc:title>
      </cc:Work>
    </rdf:RDF>
  </metadata>
  <g
     inkscape:label="Layer 1"
     inkscape:groupmode="layer"
     id="layer1"
     transform="translate(0,-652.26769)">
    <text
       xml:space="preserve"
       style="font-style:normal;font-weight:normal;font-size:1.73258px;line-height:0%;font-family:sans-serif;letter-spacing:0px;word-spacing:0px;fill:#000000;fill-opacity:1;stroke:none;stroke-width:0.144382px;stroke-linecap:butt;stroke-linejoin:miter;stroke-opacity:1"
       x="61.46077"
       y="562.42761"
       id="text4136"
       transform="scale(0.81515331,1.2267631)"
       inkscape:export-xdpi="96"
       inkscape:export-ydpi="96"><tspan
         sodipodi:role="line"
         id="tspan4138"
         x="61.46077"
         y="562.42761"
         style="font-style:normal;font-variant:normal;font-weight:bold;font-stretch:normal;font-size:25.0339px;line-height:1.25;font-family:sans-serif;-inkscape-font-specification:'sans-serif Bold';letter-spacing:0.740496px;word-spacing:0px;stroke-width:0.144382px"
         dy="0"
         dx="0">RyderHub</tspan></text>
    <path
       sodipodi:arc-type="arc"
       style="opacity:1;fill:url(#linearGradient4175);fill-opacity:1;fill-rule:evenodd;stroke:none;stroke-width:0.223214;stroke-miterlimit:4;stroke-dasharray:none;stroke-opacity:1"
       id="path4150"
       sodipodi:type="arc"
       sodipodi:cx="25.467815"
       sodipodi:cy="677.67163"
       sodipodi:rx="20.278673"
       sodipodi:ry="19.942818"
       sodipodi:start="3.5702979"
       sodipodi:end="3.5672261"
       sodipodi:open="true"
       d="M 7.0242662,669.38153 A 20.278673,19.942818 0 0 1 33.883363,659.52718 20.278673,19.942818 0 0 1 43.92429,685.93386 20.278673,19.942818 0 0 1 17.080615,695.82877 20.278673,19.942818 0 0 1 6.9984588,669.43729"
       inkscape:export-xdpi="96"
       inkscape:export-ydpi="96" />
    <path
       sodipodi:arc-type="arc"
       d="m -38.675162,-686.39728 a 20.278662,19.942827 0 0 1 26.859082,-9.85435 20.278662,19.942827 0 0 1 10.0409215,26.40669 20.278662,19.942827 0 0 1 -26.8436595,9.89491 20.278662,19.942827 0 0 1 -10.082151,-26.3915"
       sodipodi:open="true"
       sodipodi:end="3.5672261"
       sodipodi:start="3.5702979"
       sodipodi:ry="19.942827"
       sodipodi:rx="20.278662"
       sodipodi:cy="-678.10718"
       sodipodi:cx="-20.231623"
       sodipodi:type="arc"
       id="path4177"
       style="opacity:1;fill:url(#linearGradient4195);fill-opacity:1;fill-rule:evenodd;stroke:none;stroke-width:0.223214;stroke-miterlimit:4;stroke-dasharray:none;stroke-opacity:1"
       transform="matrix(-0.99995263,0.00973301,-0.00985925,-0.9999514,0,0)"
       inkscape:export-xdpi="96"
       inkscape:export-ydpi="96" />
    <path
       sodipodi:arc-type="arc"
       d="M 8.8865957,669.5871 A 20.278673,19.942818 0 0 1 35.745693,659.73275 20.278673,19.942818 0 0 1 45.78662,686.13943 20.278673,19.942818 0 0 1 18.942944,696.03434 20.278673,19.942818 0 0 1 8.8607883,669.64285"
       sodipodi:open="true"
       sodipodi:end="3.5672261"
       sodipodi:start="3.5702979"
       sodipodi:ry="19.942818"
       sodipodi:rx="20.278673"
       sodipodi:cy="677.8772"
       sodipodi:cx="27.330145"
       sodipodi:type="arc"
       id="path4197"
       style="opacity:1;fill:url(#linearGradient4201);fill-opacity:1;fill-rule:evenodd;stroke:none;stroke-width:0.223214;stroke-miterlimit:4;stroke-dasharray:none;stroke-opacity:1"
       inkscape:export-xdpi="96"
       inkscape:export-ydpi="96" />
    <path
       style="fill:#ffffff;fill-opacity:1;fill-rule:evenodd;stroke:none;stroke-width:0.144382px;stroke-linecap:butt;stroke-linejoin:miter;stroke-opacity:1"
       d="m 12.769005,689.25591 h 26.086319 c 0.02629,-0.007 0.05406,-0.017 0.07931,-0.026 0.06412,-0.0229 0.127094,-0.049 0.189011,-0.0773 0.202072,-0.0925 0.39308,-0.20932 0.566759,-0.34796 0,0 0,0 1e-6,0 0.525909,-0.41983 0.85174,-1.06975 0.895738,-1.74124 0,0 0,0 0,0 0.04512,-0.68868 -0.276744,-1.37729 -0.809271,-1.8163 -1e-6,0 -1e-6,0 -2e-6,0 -0.189169,-0.15596 -0.398408,-0.28712 -0.619175,-0.39374 h 0 c -1e-6,0 -1e-6,0 -2e-6,0 -0.06924,-0.0334 -0.139647,-0.0645 -0.211328,-0.0923 v 0 c 0,0 -10e-7,0 -10e-7,0 -0.02059,-0.008 -0.04127,-0.0157 -0.06211,-0.023 -0.0085,-0.003 -0.01731,-0.006 -0.02585,-0.009 l -26.039008,-0.1405 -0.872708,0.46206 -3e-6,10e-6 c -0.535533,0.43899 -0.808745,1.1506 -0.769421,1.84195 l 1.591233,2.36291 c 3.38e-4,1.1e-4 5.09e-4,1.7e-4 5.09e-4,1.7e-4 z"
       id="path4203"
       inkscape:path-effect="#path-effect4205"
       inkscape:original-d="m 12.769005,689.25591 h 26.086319 c 0,0 1.616379,-0.44596 1.730817,-2.19252 0.115102,-1.75665 -1.728154,-2.33421 -1.728154,-2.33421 l -26.038592,-0.14037 c 0,0 -1.748246,0.43843 -1.642132,2.30402 0.106117,1.86559 1.591742,2.36308 1.591742,2.36308 z"
       inkscape:connector-curvature="0"
       sodipodi:nodetypes="ccsccsc"
       inkscape:export-xdpi="96"
       inkscape:export-ydpi="96" />
    <path
       sodipodi:nodetypes="ccsccsc"
       inkscape:connector-curvature="0"
       inkscape:original-d="m 23.8893,665.2435 0.0032,22.30797 c 0,0 0.380705,1.38223 1.870894,1.47993 1.498794,0.0983 1.991351,-1.47805 1.991351,-1.47805 l 0.116572,-22.26718 c 0,0 -0.374287,-1.49498 -1.966008,-1.40407 -1.59173,0.0909 -2.016012,1.3614 -2.016012,1.3614 z"
       inkscape:path-effect="#path-effect4221"
       id="path4219"
       d="m 23.8893,665.2435 0.0032,22.30797 c 0.07406,0.26288 0.216581,0.50296 0.386615,0.71593 l 10e-7,0 c 0.357943,0.44833 0.911817,0.72647 1.484277,0.764 l 1e-6,0 c 0.587134,0.0385 1.17404,-0.23638 1.548179,-0.6905 l 1e-6,0 0.443017,-0.78706 0.116726,-22.26767 -0.395764,-0.74799 -1e-6,-10e-6 c -0.374317,-0.4565 -0.980854,-0.68973 -1.570243,-0.65607 l -2.01581,1.3608 z"
       style="fill:#ffffff;fill-opacity:1;fill-rule:evenodd;stroke:none;stroke-width:0.144382px;stroke-linecap:butt;stroke-linejoin:miter;stroke-opacity:1"
       inkscape:export-xdpi="96"
       inkscape:export-ydpi="96" />
    <path
       sodipodi:nodetypes="ccsccsc"
       inkscape:connector-curvature="0"
       inkscape:original-d="m 16.716076,673.5532 0.0032,12.9499 c 0,0 0.380702,0.80239 1.870894,0.8591 1.498802,0.057 1.991355,-0.85801 1.991355,-0.85801 l 0.116572,-12.9262 c 0,0 -0.374286,-0.86785 -1.966007,-0.81508 -1.59173,0.0527 -2.016013,0.79029 -2.016014,0.79029 z"
       inkscape:path-effect="#path-effect4221-2"
       id="path4219-5"
       d="m 16.716076,673.5532 0.0032,12.9499 1.870894,0.8591 1.990964,-0.8573 0.116963,-12.92691 -3.64e-4,-8.2e-4 -1.965643,-0.81426 -2.01551,0.78944 c -3.38e-4,5.6e-4 -5.04e-4,8.5e-4 -5.04e-4,8.5e-4 z"
       style="fill:#ffffff;fill-opacity:1;fill-rule:evenodd;stroke:none;stroke-width:0.144382px;stroke-linecap:butt;stroke-linejoin:miter;stroke-opacity:1"
       inkscape:export-xdpi="96"
       inkscape:export-ydpi="96" />
    <path
       sodipodi:nodetypes="ccsccsc"
       inkscape:connector-curvature="0"
       inkscape:original-d="m 31.347583,669.56378 0.0032,17.31699 c 0,0 0.380704,1.07298 1.870896,1.14883 1.498798,0.0763 1.991357,-1.14738 1.991357,-1.14738 l 0.116572,-17.28533 c 0,0 -0.374285,-1.16052 -1.96601,-1.08993 -1.591729,0.0706 -2.01601,1.05682 -2.01601,1.05682 z"
       inkscape:path-effect="#path-effect4221-6"
       id="path4219-6"
       d="m 31.347583,669.56378 0.0032,17.31699 1.870896,1.14883 v 0 c 0.560055,0.0285 1.136963,-0.14984 1.545744,-0.53373 h 0 c 0,0 10e-7,0 10e-7,0 0.129405,-0.12153 0.24308,-0.25983 0.337063,-0.41044 v 0 l 1e-6,0 c 0.02868,-0.046 0.05556,-0.0931 0.07985,-0.14151 0,0 1e-6,0 1e-6,0 0.0098,-0.0195 0.02016,-0.0409 0.02846,-0.0611 l 0.116814,-17.28592 -2.19e-4,-6.6e-4 -1.965791,-1.08927 -2.015694,1.0561 z"
       style="fill:#ffffff;fill-opacity:1;fill-rule:evenodd;stroke:none;stroke-width:0.144382px;stroke-linecap:butt;stroke-linejoin:miter;stroke-opacity:1"
       inkscape:export-xdpi="96"
       inkscape:export-ydpi="96" />
    <path
       style="fill:#e10808;fill-opacity:1;fill-rule:evenodd;stroke:none;stroke-width:1px;stroke-linecap:butt;stroke-linejoin:miter;stroke-opacity:1"
       d="m 230.1216,1280.6218 h 199.80131 c 0.0128,-0 0.0258,-0.01 0.0384,-0.01 0.0355,-0.01 0.0709,-0.02 0.1062,-0.03 0.13354,-0.039 0.26625,-0.08 0.39839,-0.1233 0,0 1e-5,0 1e-5,0 l 0,0 c 0.48021,-0.1569 0.95294,-0.3363 1.41888,-0.5315 0,0 0,0 10e-6,0 1.53855,-0.6448 3.00467,-1.4649 4.35031,-2.4508 h 0 l 1e-5,0 h 0 c 1.77614,-1.3014 3.33785,-2.9089 4.5084,-4.7739 v 0 c 0,0 0,0 10e-6,0 0,0 0,0 0,0 1.4397,-2.2938 2.24537,-4.9626 2.43611,-7.6641 0.19134,-2.7099 -0.36552,-5.4817 -1.69218,-7.8524 -1.12616,-2.0124 -2.74567,-3.7236 -4.58376,-5.1163 l -6.96036,-3.6221 -199.43582,-0.9977 -6e-5,0 -6.60528,3.2245 c -1e-5,0 -2e-5,0 -2e-5,0 -1.78219,1.3401 -3.31247,3.0351 -4.35392,5.0068 -1.30947,2.479 -1.78973,5.3465 -1.6182,8.1449 0,0 0,0 0,0 0.31051,5.0658 2.54797,10.0415 6.38817,13.3599 l 0,0 2e-5,0 c 1.21582,1.0506 2.5619,1.951 3.99908,2.6697 0,0 1e-5,0 2e-5,0 h 0 c 0.42636,0.2132 0.86077,0.4107 1.30445,0.585 10e-6,0 2e-5,0 3e-5,0 0,0 1e-5,0 2e-5,0 0.12134,0.048 0.24336,0.094 0.36643,0.1367 0.0325,0.011 0.0651,0.023 0.0978,0.033 0.0117,0 0.0237,0.01 0.0355,0.011 5e-5,0 7e-5,0 7e-5,0 z"
       id="path4203-9"
       inkscape:path-effect="#path-effect4205-9"
       inkscape:original-d="m 230.1216,1280.6218 h 199.80131 c 0,0 12.38026,-3.1698 13.25677,-15.5838 0.88158,-12.4856 -13.23635,-16.5908 -13.23635,-16.5908 l -199.43577,-0.9977 c 0,0 -13.39024,3.1163 -12.57748,16.3762 0.81277,13.2601 12.19152,16.7961 12.19152,16.7961 z"
       inkscape:connector-curvature="0"
       sodipodi:nodetypes="ccsccsc" />
    <path
       sodipodi:nodetypes="ccsccsc"
       inkscape:connector-curvature="0"
       inkscape:original-d="m 315.29459,1109.9496 0.0245,158.5575 c 0,0 2.91591,9.8244 14.32963,10.5189 11.47963,0.6985 15.25223,-10.5056 15.25223,-10.5056 l 0.89285,-158.2674 c 0,0 -2.86675,-10.6259 -15.05812,-9.9797 -12.19143,0.6461 -15.44111,9.6763 -15.44111,9.6763 z"
       inkscape:path-effect="#path-effect4221-8"
       id="path4219-9"
       d="m 315.29459,1109.9496 0.0245,158.5575 2.89521,5.0114 1e-5,0 c 2.81795,3.3174 7.0898,5.2431 11.43441,5.5075 2.47,0.1503 4.98951,-0.2666 7.21779,-1.3428 1.79652,-0.8677 3.38687,-2.1373 4.7031,-3.6366 0,0 10e-6,0 10e-6,0 l 3.33131,-5.5261 0.89287,-158.2675 -2e-5,-10e-5 -2.96747,-5.2438 h 0 l -10e-6,0 c -2.95044,-3.3844 -7.60703,-4.9735 -12.09062,-4.7358 -10e-6,0 -10e-6,0 -2e-5,0 -4.52511,0.2398 -9.0738,1.8661 -12.28012,5.0682 0,0 -10e-6,0 -10e-6,10e-5 -0.94897,0.9477 -1.78249,2.0131 -2.45493,3.1735 -1e-5,0 -1e-5,0 -1e-5,0 -0.19523,0.3369 -0.37709,0.6817 -0.53843,1.0361 v 0 c -0.0439,0.096 -0.0862,0.1934 -0.12599,0.2916 l 0,0 c -0.0105,0.026 -0.0208,0.052 -0.0308,0.078 -0.004,0.01 -0.007,0.019 -0.0107,0.029 z"
       style="fill:#e10808;fill-opacity:1;fill-rule:evenodd;stroke:none;stroke-width:1px;stroke-linecap:butt;stroke-linejoin:miter;stroke-opacity:1" />
    <path
       sodipodi:nodetypes="ccsccsc"
       inkscape:connector-curvature="0"
       inkscape:original-d="m 260.35317,1169.0122 0.0245,92.0435 c 0,0 2.91589,5.7031 14.32962,6.1062 11.47968,0.4056 15.25227,-6.0984 15.25227,-6.0984 l 0.89285,-91.8752 c 0,0 -2.86675,-6.1684 -15.05812,-5.7932 -12.19143,0.3751 -15.44112,5.6171 -15.44112,5.6171 z"
       inkscape:path-effect="#path-effect4221-2-5"
       id="path4219-5-8"
       d="m 260.35317,1169.0122 0.0245,92.0435 c 0.012,0.023 0.0254,0.047 0.0384,0.069 0.0364,0.063 0.075,0.1246 0.1148,0.1854 v 0 c 0.14955,0.2287 0.31581,0.4462 0.49137,0.6556 0,0 0,0 0,0 0.64825,0.7733 1.42354,1.4345 2.25695,2.0034 0,0 0,0 0,0 3.30944,2.2588 7.42374,3.0513 11.42807,3.1927 l 0,0 10e-6,0 v 0 c 4.14997,0.1466 8.45026,-0.5979 11.91516,-2.8866 0,0 0,0 0,0 0.9391,-0.6203 1.81116,-1.3475 2.55758,-2.1898 1e-5,0 1e-5,0 1e-5,0 0.20833,-0.2351 0.40697,-0.4791 0.58909,-0.735 0,0 0,0 0,0 0,0 10e-6,0 10e-6,0 0.0489,-0.069 0.0966,-0.1383 0.14216,-0.2092 0.012,-0.019 0.0239,-0.038 0.0355,-0.056 0.004,-0.01 0.009,-0.014 0.0127,-0.021 l 0.89291,-91.8753 c -0.003,-0.01 -0.007,-0.014 -0.01,-0.02 -0.009,-0.018 -0.0184,-0.036 -0.0279,-0.054 -0.036,-0.068 -0.0746,-0.1336 -0.11443,-0.1988 -10e-6,0 -10e-6,0 -10e-6,0 0,0 0,0 -1e-5,0 -0.14895,-0.2437 -0.31713,-0.4752 -0.49628,-0.6976 0,0 -10e-6,0 -10e-6,0 -0.6546,-0.8125 -1.45637,-1.4999 -2.3252,-2.0777 0,0 -1e-5,0 -1e-5,0 -3.49346,-2.3231 -7.8909,-2.874 -12.08429,-2.7449 l -1e-5,0 c -4.24618,0.1306 -8.59701,0.8094 -12.27335,2.9382 h 0 c 0,0 -10e-6,0 -10e-6,0 -0.88832,0.5144 -1.73165,1.1159 -2.45739,1.8418 0,0 -10e-6,0 -10e-6,0 -0.19091,0.191 -0.37364,0.3905 -0.54045,0.6029 -0.0438,0.056 -0.0865,0.1124 -0.12711,0.1705 -0.0145,0.021 -0.0293,0.042 -0.0427,0.064 -5e-5,10e-5 -7e-5,10e-5 -7e-5,10e-5 z"
       style="fill:#e10808;fill-opacity:1;fill-rule:evenodd;stroke:none;stroke-width:1px;stroke-linecap:butt;stroke-linejoin:miter;stroke-opacity:1" />
    <path
       sodipodi:nodetypes="ccsccsc"
       inkscape:connector-curvature="0"
       inkscape:original-d="m 372.41935,1140.6567 0.0245,123.0833 c 0,0 2.9159,7.6264 14.32963,8.1655 11.47967,0.5422 15.25227,-8.1551 15.25227,-8.1551 l 0.89285,-122.8583 c 0,0 -2.86675,-8.2485 -15.05813,-7.7469 -12.19142,0.5016 -15.4411,7.5115 -15.4411,7.5115 z"
       inkscape:path-effect="#path-effect4221-6-4"
       id="path4219-6-7"
       d="m 372.41935,1140.6567 0.0245,123.0833 c 0.003,0.01 0.007,0.017 0.01,0.025 0.009,0.022 0.0184,0.044 0.0279,0.066 0.036,0.083 0.0744,0.1653 0.11421,0.2468 0.14688,0.3007 0.31264,0.592 0.49029,0.8756 0,0 0,0 0,0 0.6216,0.9924 1.39099,1.8896 2.25561,2.6793 0,0 0,0 0,0 3.06554,2.7999 7.28458,4.0769 11.43172,4.2728 l 1e-5,0 c 4.28061,0.2022 8.70745,-1.0251 11.91844,-3.8631 l 0,0 3.33379,-4.2919 0.89289,-122.8584 -2.97016,-4.073 c -3.2262,-2.8711 -7.77288,-3.8514 -12.08797,-3.6739 -1e-5,0 -1e-5,0 -2e-5,0 -4.36228,0.1795 -8.82598,1.2579 -12.27715,3.9321 l -3.16388,3.5793 z"
       style="fill:#e10808;fill-opacity:1;fill-rule:evenodd;stroke:none;stroke-width:1px;stroke-linecap:butt;stroke-linejoin:miter;stroke-opacity:1" />
    <path
       sodipodi:arc-type="arc"
       style="opacity:1;fill:none;fill-opacity:1;fill-rule:evenodd;stroke:#000000;stroke-width:0.147674;stroke-miterlimit:4;stroke-dasharray:none;stroke-opacity:1"
       id="path4285"
       sodipodi:type="arc"
       sodipodi:cx="26.299822"
       sodipodi:cy="677.78479"
       sodipodi:rx="21.982244"
       sodipodi:ry="20.976068"
       sodipodi:start="3.5702979"
       sodipodi:end="3.5672261"
       sodipodi:open="true"
       d="M 6.3068665,669.06517 A 21.982244,20.976068 0 0 1 35.422343,658.70027 21.982244,20.976068 0 0 1 46.306789,686.47509 21.982244,20.976068 0 0 1 17.208029,696.88266 21.982244,20.976068 0 0 1 6.2788911,669.12382"
       inkscape:export-xdpi="96"
       inkscape:export-ydpi="96" />
  </g>
</svg>
